{
 "cells": [
  {
   "cell_type": "code",
   "execution_count": null,
   "metadata": {},
   "outputs": [],
   "source": [
    "# docker run --name nemo -it -p 8888:8888 --volume //e/docker/:/home/ continuumio/anaconda\n",
    "# docker run --name nemogpu -it -p 8888:8888 --memory=6g  --gpus all --volume //e/docker/:/home/ continuumio/anaconda\n",
    "\n",
    "# docker exec -it nemo bash"
   ]
  },
  {
   "cell_type": "code",
   "execution_count": null,
   "metadata": {},
   "outputs": [],
   "source": [
    "# pip install Cython numpy==1.19.3 --trusted-host pypi.org --trusted-host files.pythonhosted.org  --proxy http://web-proxy.itu.ch:3128\n",
    "# apt-get install gcc\n",
    "# apt-get install libsndfile1\n",
    "# pip install transformers websockets==8.1 pydub==0.24.1 webrtcvad==2.0.10 --trusted-host pypi.org --trusted-host files.pythonhosted.org  --proxy http://web-proxy.itu.ch:3128\n",
    "# conda install -c anaconda pyaudio\n",
    "# apt install ffmpeg\n",
    "# python -m pip install --upgrade git+https://github.com/NVIDIA/NeMo.git@main#egg=nemo_toolkit[all] --trusted-host pypi.org --trusted-host files.pythonhosted.org  --proxy http://web-proxy.itu.ch:3128\n",
    "\n",
    "# jupyter notebook --ip 0.0.0.0 --port 8888 --no-browser --allow-root\n"
   ]
  },
  {
   "cell_type": "code",
   "execution_count": null,
   "metadata": {},
   "outputs": [
    {
     "name": "stdout",
     "output_type": "stream",
     "text": [
      "MODEL_NAME_OR_PATH = ./nemo100_NR_ft.nemo\n",
      "DATA_DIR = WORK_DIR/DATA\n",
      "OUTPUT_DIR = WORK_DIR/output_multiple_files\n",
      "MIN_SCORE = -5\n",
      "CUT_PREFIX = 4\n",
      "SCRIPTS_DIR = ./ctc_segmentation/scripts\n",
      "OFFSET = 0\n",
      "LANGUAGE = eng\n",
      "[NeMo W 2020-11-22 21:29:28 experimental:28] Module <class 'nemo.collections.asr.losses.ctc.CTCLoss'> is experimental, not ready for production and is not fully supported. Use at your own risk.\n",
      "[NeMo W 2020-11-22 21:29:29 experimental:28] Module <class 'nemo.collections.asr.data.audio_to_text.AudioToCharDataset'> is experimental, not ready for production and is not fully supported. Use at your own risk.\n",
      "[NeMo W 2020-11-22 21:29:29 experimental:28] Module <class 'nemo.collections.asr.data.audio_to_text.AudioToBPEDataset'> is experimental, not ready for production and is not fully supported. Use at your own risk.\n",
      "[NeMo W 2020-11-22 21:29:29 experimental:28] Module <class 'nemo.collections.asr.data.audio_to_text.AudioLabelDataset'> is experimental, not ready for production and is not fully supported. Use at your own risk.\n",
      "[NeMo W 2020-11-22 21:29:29 experimental:28] Module <class 'nemo.collections.asr.data.audio_to_text._TarredAudioToTextDataset'> is experimental, not ready for production and is not fully supported. Use at your own risk.\n",
      "[NeMo W 2020-11-22 21:29:29 experimental:28] Module <class 'nemo.collections.asr.data.audio_to_text.TarredAudioToCharDataset'> is experimental, not ready for production and is not fully supported. Use at your own risk.\n",
      "[NeMo W 2020-11-22 21:29:29 experimental:28] Module <class 'nemo.collections.asr.data.audio_to_text.TarredAudioToBPEDataset'> is experimental, not ready for production and is not fully supported. Use at your own risk.\n",
      "[NeMo W 2020-11-22 21:29:29 nemo_logging:349] /opt/conda/envs/nemo/lib/python3.7/site-packages/torch/cuda/__init__.py:52: UserWarning: CUDA initialization: Found no NVIDIA driver on your system. Please check that you have an NVIDIA GPU and installed a driver from http://www.nvidia.com/Download/index.aspx (Triggered internally at  /pytorch/c10/cuda/CUDAFunctions.cpp:100.)\n",
      "      return torch._C._cuda_getDeviceCount() > 0\n",
      "    \n",
      "[NeMo W 2020-11-22 21:29:29 experimental:28] Module <class 'nemo.collections.asr.data.audio_to_text_dali.AudioToCharDALIDataset'> is experimental, not ready for production and is not fully supported. Use at your own risk.\n",
      "[NeMo W 2020-11-22 21:29:32 modelPT:122] Please call the ModelPT.setup_training_data() method and provide a valid configuration file to setup the train data loader.\n",
      "    Train config : \n",
      "    manifest_filepath: /home/wesam/dataset/TEDLIUM_release2/ted_train_nemo.json\n",
      "    sample_rate: 16000\n",
      "    labels:\n",
      "    - ' '\n",
      "    - a\n",
      "    - b\n",
      "    - c\n",
      "    - d\n",
      "    - e\n",
      "    - f\n",
      "    - g\n",
      "    - h\n",
      "    - i\n",
      "    - j\n",
      "    - k\n",
      "    - l\n",
      "    - m\n",
      "    - 'n'\n",
      "    - o\n",
      "    - p\n",
      "    - q\n",
      "    - r\n",
      "    - s\n",
      "    - t\n",
      "    - u\n",
      "    - v\n",
      "    - w\n",
      "    - x\n",
      "    - 'y'\n",
      "    - z\n",
      "    - ''''\n",
      "    batch_size: 16\n",
      "    trim_silence: true\n",
      "    max_duration: 16.7\n",
      "    shuffle: true\n",
      "    is_tarred: false\n",
      "    tarred_audio_filepaths: null\n",
      "    tarred_shard_strategy: scatter\n",
      "    \n",
      "[NeMo W 2020-11-22 21:29:32 modelPT:129] Please call the ModelPT.setup_validation_data() or ModelPT.setup_multiple_validation_data() method and provide a valid configuration file to setup the validation data loader(s). \n",
      "    Validation config : \n",
      "    manifest_filepath: /home/wesam/dataset/TEDLIUM_release2/ted_dev_nemo.json\n",
      "    sample_rate: 16000\n",
      "    labels:\n",
      "    - ' '\n",
      "    - a\n",
      "    - b\n",
      "    - c\n",
      "    - d\n",
      "    - e\n",
      "    - f\n",
      "    - g\n",
      "    - h\n",
      "    - i\n",
      "    - j\n",
      "    - k\n",
      "    - l\n",
      "    - m\n",
      "    - 'n'\n",
      "    - o\n",
      "    - p\n",
      "    - q\n",
      "    - r\n",
      "    - s\n",
      "    - t\n",
      "    - u\n",
      "    - v\n",
      "    - w\n",
      "    - x\n",
      "    - 'y'\n",
      "    - z\n",
      "    - ''''\n",
      "    batch_size: 16\n",
      "    shuffle: false\n",
      "    \n",
      "[NeMo W 2020-11-22 21:29:32 nemo_logging:349] /opt/conda/envs/nemo/lib/python3.7/site-packages/hydra/_internal/utils.py:632: UserWarning: \n",
      "    Config key 'cls' is deprecated since Hydra 1.0 and will be removed in Hydra 1.1.\n",
      "    Use '_target_' instead of 'cls'.\n",
      "    See https://hydra.cc/docs/next/upgrades/0.11_to_1.0/object_instantiation_changes\n",
      "      warnings.warn(message=msg, category=UserWarning)\n",
      "    \n",
      "[NeMo W 2020-11-22 21:29:32 nemo_logging:349] /opt/conda/envs/nemo/lib/python3.7/site-packages/hydra/_internal/utils.py:577: UserWarning: \n",
      "    Field 'params' is deprecated since Hydra 1.0 and will be removed in Hydra 1.1.\n",
      "    Inline the content of params directly at the containing node.\n",
      "    See https://hydra.cc/docs/next/upgrades/0.11_to_1.0/object_instantiation_changes\n",
      "      warnings.warn(category=UserWarning, message=msg)\n",
      "    \n",
      "[NeMo I 2020-11-22 21:29:32 features:241] PADDING: 16\n",
      "[NeMo I 2020-11-22 21:29:32 features:258] STFT using torch\n",
      "[NeMo I 2020-11-22 21:29:32 modelPT:308] Model EncDecCTCModel was successfully restored from ./nemo100_NR_ft.nemo.\n",
      "Splitting text in WORK_DIR/DATA/TSAG_Plenary_2_03_0_P1.txt into sentences.\n",
      "264\n",
      "Splitting text in WORK_DIR/DATA/TSAG_Plenary_2_03_0_P2.txt into sentences.\n",
      "260\n",
      "Splitting text in WORK_DIR/DATA/TSAG_Plenary_2_03_0_P3.txt into sentences.\n",
      "299\n",
      "Splitting text in WORK_DIR/DATA/TSAG_Plenary_2_03_0_P4.txt into sentences.\n",
      "322\n",
      "Splitting text in WORK_DIR/DATA/TSAG_Plenary_Morning_26_02_2018_0_P1.txt into sentences.\n",
      "403\n",
      "Splitting text in WORK_DIR/DATA/TSAG_Plenary_Morning_26_02_2018_0_P2.txt into sentences.\n",
      "224\n",
      "Splitting text in WORK_DIR/DATA/TSAG_Plenary_Morning_26_02_2018_0_P3.txt into sentences.\n",
      "221\n",
      "Splitting text in WORK_DIR/DATA/TSAG_Rapporteur_Group_Afternoon_27_02_0_P1.txt into sentences.\n",
      "279\n",
      "Splitting text in WORK_DIR/DATA/TSAG_Rapporteur_Group_Afternoon_27_02_0_P2.txt into sentences.\n",
      "260\n",
      "Splitting text in WORK_DIR/DATA/TSAG_Rapporteur_Group_Afternoon_27_02_0_P3.txt into sentences.\n",
      "149\n",
      "Splitting text in WORK_DIR/DATA/TSAG_Rapporteur_Group_Afternoon_28_02_0.txt into sentences.\n",
      "300\n",
      "Splitting text in WORK_DIR/DATA/TSAG_Rapporteur_Group_Morning_27_02_0_P1.txt into sentences.\n",
      "235\n",
      "Splitting text in WORK_DIR/DATA/TSAG_Rapporteur_Group_Morning_27_02_0_P2.txt into sentences.\n",
      "309\n",
      "Splitting text in WORK_DIR/DATA/TSAG_Rapporteur_Group_Morning_27_02_0_P3.txt into sentences.\n",
      "187\n",
      "Splitting text in WORK_DIR/DATA/TSAG_Rapporteur_Group_Morning_28_02_0_P1.txt into sentences.\n",
      "266\n",
      "Splitting text in WORK_DIR/DATA/TSAG_Rapporteur_Group_Morning_28_02_0_P2.txt into sentences.\n",
      "279\n",
      "Splitting text in WORK_DIR/DATA/TSAG_Rapporteur_Group_Morning_28_02_0_P3.txt into sentences.\n",
      "251\n",
      "Splitting text in WORK_DIR/DATA/TSAG_Rapporteur_Group_on_Strengthening_Cooperation_1_03_0_P1.txt into sentences.\n",
      "356\n",
      "Splitting text in WORK_DIR/DATA/TSAG_Rapporteur_Group_on_Strengthening_Cooperation_1_03_0_P2.txt into sentences.\n",
      "371\n",
      "Splitting text in WORK_DIR/DATA/TSAG_Rapporteur_Group_on_Strengthening_Cooperation_1_03_0_P3.txt into sentences.\n",
      "168\n",
      "Splitting text in WORK_DIR/DATA/TSAG_Rapporteur_Group_on_the_review_of_WTSA_Resolutions_1_03_0.txt into sentences.\n",
      "358\n",
      "Splitting text in WORK_DIR/DATA/TSAG_Rapporteur_Group_on_Working_Methods_1_03_0_P1.txt into sentences.\n",
      "325\n",
      "Splitting text in WORK_DIR/DATA/TSAG_Rapporteur_Group_on_Working_Methods_1_03_0_P2.txt into sentences.\n",
      "243\n",
      "Processed text saved at WORK_DIR/output_multiple_files/processed/\n",
      "Converting WORK_DIR/DATA/TSAG_Plenary_2_03_0_P1.mp3 to .wav format with sample rate 16000\n",
      "Converting WORK_DIR/DATA/TSAG_Plenary_2_03_0_P2.mp3 to .wav format with sample rate 16000\n",
      "Converting WORK_DIR/DATA/TSAG_Plenary_2_03_0_P3.mp3 to .wav format with sample rate 16000\n",
      "Converting WORK_DIR/DATA/TSAG_Plenary_2_03_0_P4.mp3 to .wav format with sample rate 16000\n",
      "Converting WORK_DIR/DATA/TSAG_Plenary_Morning_26_02_2018_0_P1.mp3 to .wav format with sample rate 16000\n",
      "Converting WORK_DIR/DATA/TSAG_Plenary_Morning_26_02_2018_0_P2.mp3 to .wav format with sample rate 16000\n",
      "Converting WORK_DIR/DATA/TSAG_Plenary_Morning_26_02_2018_0_P3.mp3 to .wav format with sample rate 16000\n",
      "ffmpeg version 4.1.6-1~deb10u1 Copyright (c) 2000-2020 the FFmpeg developers\n",
      "  built with gcc 8 (Debian 8.3.0-6)\n",
      "  configuration: --prefix=/usr --extra-version='1~deb10u1' --toolchain=hardened --libdir=/usr/lib/x86_64-linux-gnu --incdir=/usr/include/x86_64-linux-gnu --arch=amd64 --enable-gpl --disable-stripping --enable-avresample --disable-filter=resample --enable-avisynth --enable-gnutls --enable-ladspa --enable-libaom --enable-libass --enable-libbluray --enable-libbs2b --enable-libcaca --enable-libcdio --enable-libcodec2 --enable-libflite --enable-libfontconfig --enable-libfreetype --enable-libfribidi --enable-libgme --enable-libgsm --enable-libjack --enable-libmp3lame --enable-libmysofa --enable-libopenjpeg --enable-libopenmpt --enable-libopus --enable-libpulse --enable-librsvg --enable-librubberband --enable-libshine --enable-libsnappy --enable-libsoxr --enable-libspeex --enable-libssh --enable-libtheora --enable-libtwolame --enable-libvidstab --enable-libvorbis --enable-libvpx --enable-libwavpack --enable-libwebp --enable-libx265 --enable-libxml2 --enable-libxvid --enable-libzmq --enable-libzvbi --enable-lv2 --enable-omx --enable-openal --enable-opengl --enable-sdl2 --enable-libdc1394 --enable-libdrm --enable-libiec61883 --enable-chromaprint --enable-frei0r --enable-libx264 --enable-shared\n",
      "  libavutil      56. 22.100 / 56. 22.100\n",
      "  libavcodec     58. 35.100 / 58. 35.100\n",
      "  libavformat    58. 20.100 / 58. 20.100\n",
      "  libavdevice    58.  5.100 / 58.  5.100\n",
      "  libavfilter     7. 40.101 /  7. 40.101\n",
      "  libavresample   4.  0.  0 /  4.  0.  0\n",
      "  libswscale      5.  3.100 /  5.  3.100\n",
      "  libswresample   3.  3.100 /  3.  3.100\n",
      "  libpostproc    55.  3.100 / 55.  3.100\n",
      "Input #0, mp3, from 'WORK_DIR/DATA/TSAG_Plenary_2_03_0_P1.mp3':\n",
      "  Duration: 00:58:05.52, start: 0.025057, bitrate: 63 kb/s\n",
      "    Stream #0:0: Audio: mp3, 44100 Hz, mono, fltp, 63 kb/s\n",
      "    Metadata:\n",
      "      encoder         : LAME3.100\n"
     ]
    },
    {
     "name": "stdout",
     "output_type": "stream",
     "text": [
      "Converting WORK_DIR/DATA/TSAG_Rapporteur_Group_Afternoon_27_02_0_P1.mp3 to .wav format with sample rate 16000\n",
      "Stream mapping:\n",
      "  Stream #0:0 -> #0:0 (mp3 (mp3float) -> pcm_s16le (native))\n",
      "Press [q] to stop, [?] for help\n",
      "ffmpeg version 4.1.6-1~deb10u1 Copyright (c) 2000-2020 the FFmpeg developers\n",
      "  built with gcc 8 (Debian 8.3.0-6)\n",
      "  configuration: --prefix=/usr --extra-version='1~deb10u1' --toolchain=hardened --libdir=/usr/lib/x86_64-linux-gnu --incdir=/usr/include/x86_64-linux-gnu --arch=amd64 --enable-gpl --disable-stripping --enable-avresample --disable-filter=resample --enable-avisynth --enable-gnutls --enable-ladspa --enable-libaom --enable-libass --enable-libbluray --enable-libbs2b --enable-libcaca --enable-libcdio --enable-libcodec2 --enable-libflite --enable-libfontconfig --enable-libfreetype --enable-libfribidi --enable-libgme --enable-libgsm --enable-libjack --enable-libmp3lame --enable-libmysofa --enable-libopenjpeg --enable-libopenmpt --enable-libopus --enable-libpulse --enable-librsvg --enable-librubberband --enable-libshine --enable-libsnappy --enable-libsoxr --enable-libspeex --enable-libssh --enable-libtheora --enable-libtwolame --enable-libvidstab --enable-libvorbis --enable-libvpx --enable-libwavpack --enable-libwebp --enable-libx265 --enable-libxml2 --enable-libxvid --enable-libzmq --enable-libzvbi --enable-lv2 --enable-omx --enable-openal --enable-opengl --enable-sdl2 --enable-libdc1394 --enable-libdrm --enable-libiec61883 --enable-chromaprint --enable-frei0r --enable-libx264 --enable-shared\n",
      "  libavutil      56. 22.100 / 56. 22.100\n",
      "  libavcodec     58. 35.100 / 58. 35.100\n",
      "  libavformat    58. 20.100 / 58. 20.100\n",
      "  libavdevice    58.  5.100 / 58.  5.100\n",
      "  libavfilter     7. 40.101 /  7. 40.101\n",
      "  libavresample   4.  0.  0 /  4.  0.  0\n",
      "  libswscale      5.  3.100 /  5.  3.100\n",
      "  libswresample   3.  3.100 /  3.  3.100\n",
      "  libpostproc    55.  3.100 / 55.  3.100\n",
      "Output #0, wav, to 'WORK_DIR/output_multiple_files/processed/TSAG_Plenary_2_03_0_P1.wav':\n",
      "  Metadata:\n",
      "    ISFT            : Lavf58.20.100\n",
      "    Stream #0:0: Audio: pcm_s16le ([1][0][0][0] / 0x0001), 16000 Hz, mono, s16, 256 kb/s\n",
      "    Metadata:\n",
      "      encoder         : Lavc58.35.100 pcm_s16le\n",
      "Input #0, mp3, from 'WORK_DIR/DATA/TSAG_Plenary_2_03_0_P2.mp3':\n",
      "  Duration: 01:01:50.54, start: 0.025057, bitrate: 63 kb/s\n",
      "    Stream #0:0: Audio: mp3, 44100 Hz, mono, fltp, 63 kb/s\n",
      "    Metadata:\n",
      "      encoder         : LAME3.100\n",
      "Stream mapping:\n",
      "  Stream #0:0 -> #0:0 (mp3 (mp3float) -> pcm_s16le (native))\n",
      "Press [q] to stop, [?] for help\n",
      "Converting WORK_DIR/DATA/TSAG_Rapporteur_Group_Afternoon_27_02_0_P2.mp3 to .wav format with sample rate 16000\n",
      "Output #0, wav, to 'WORK_DIR/output_multiple_files/processed/TSAG_Plenary_2_03_0_P2.wav':\n",
      "  Metadata:\n",
      "    ISFT            : Lavf58.20.100\n",
      "    Stream #0:0: Audio: pcm_s16le ([1][0][0][0] / 0x0001), 16000 Hz, mono, s16, 256 kb/s\n",
      "    Metadata:\n",
      "      encoder         : Lavc58.35.100 pcm_s16le\n",
      "Converting WORK_DIR/DATA/TSAG_Rapporteur_Group_Afternoon_27_02_0_P3.mp3 to .wav format with sample rate 16000\n",
      "ffmpeg version 4.1.6-1~deb10u1 Copyright (c) 2000-2020 the FFmpeg developers\n",
      "  built with gcc 8 (Debian 8.3.0-6)\n",
      "  configuration: --prefix=/usr --extra-version='1~deb10u1' --toolchain=hardened --libdir=/usr/lib/x86_64-linux-gnu --incdir=/usr/include/x86_64-linux-gnu --arch=amd64 --enable-gpl --disable-stripping --enable-avresample --disable-filter=resample --enable-avisynth --enable-gnutls --enable-ladspa --enable-libaom --enable-libass --enable-libbluray --enable-libbs2b --enable-libcaca --enable-libcdio --enable-libcodec2 --enable-libflite --enable-libfontconfig --enable-libfreetype --enable-libfribidi --enable-libgme --enable-libgsm --enable-libjack --enable-libmp3lame --enable-libmysofa --enable-libopenjpeg --enable-libopenmpt --enable-libopus --enable-libpulse --enable-librsvg --enable-librubberband --enable-libshine --enable-libsnappy --enable-libsoxr --enable-libspeex --enable-libssh --enable-libtheora --enable-libtwolame --enable-libvidstab --enable-libvorbis --enable-libvpx --enable-libwavpack --enable-libwebp --enable-libx265 --enable-libxml2 --enable-libxvid --enable-libzmq --enable-libzvbi --enable-lv2 --enable-omx --enable-openal --enable-opengl --enable-sdl2 --enable-libdc1394 --enable-libdrm --enable-libiec61883 --enable-chromaprint --enable-frei0r --enable-libx264 --enable-shared\n",
      "  libavutil      56. 22.100 / 56. 22.100\n",
      "  libavcodec     58. 35.100 / 58. 35.100\n",
      "  libavformat    58. 20.100 / 58. 20.100\n",
      "  libavdevice    58.  5.100 / 58.  5.100\n",
      "  libavfilter     7. 40.101 /  7. 40.101\n",
      "  libavresample   4.  0.  0 /  4.  0.  0\n",
      "  libswscale      5.  3.100 /  5.  3.100\n",
      "  libswresample   3.  3.100 /  3.  3.100\n",
      "  libpostproc    55.  3.100 / 55.  3.100\n",
      "Converting WORK_DIR/DATA/TSAG_Rapporteur_Group_Afternoon_28_02_0.mp3 to .wav format with sample rate 16000\n",
      "Input #0, mp3, from 'WORK_DIR/DATA/TSAG_Plenary_2_03_0_P3.mp3':\n",
      "  Duration: 00:57:33.41, start: 0.025057, bitrate: 65 kb/s\n",
      "    Stream #0:0: Audio: mp3, 44100 Hz, mono, fltp, 65 kb/s\n",
      "    Metadata:\n",
      "      encoder         : LAME3.100\n",
      "Stream mapping:\n",
      "  Stream #0:0 -> #0:0 (mp3 (mp3float) -> pcm_s16le (native))\n",
      "Press [q] to stop, [?] for help\n",
      "ffmpeg version 4.1.6-1~deb10u1 Copyright (c) 2000-2020 the FFmpeg developers\n",
      "  built with gcc 8 (Debian 8.3.0-6)\n",
      "  configuration: --prefix=/usr --extra-version='1~deb10u1' --toolchain=hardened --libdir=/usr/lib/x86_64-linux-gnu --incdir=/usr/include/x86_64-linux-gnu --arch=amd64 --enable-gpl --disable-stripping --enable-avresample --disable-filter=resample --enable-avisynth --enable-gnutls --enable-ladspa --enable-libaom --enable-libass --enable-libbluray --enable-libbs2b --enable-libcaca --enable-libcdio --enable-libcodec2 --enable-libflite --enable-libfontconfig --enable-libfreetype --enable-libfribidi --enable-libgme --enable-libgsm --enable-libjack --enable-libmp3lame --enable-libmysofa --enable-libopenjpeg --enable-libopenmpt --enable-libopus --enable-libpulse --enable-librsvg --enable-librubberband --enable-libshine --enable-libsnappy --enable-libsoxr --enable-libspeex --enable-libssh --enable-libtheora --enable-libtwolame --enable-libvidstab --enable-libvorbis --enable-libvpx --enable-libwavpack --enable-libwebp --enable-libx265 --enable-libxml2 --enable-libxvid --enable-libzmq --enable-libzvbi --enable-lv2 --enable-omx --enable-openal --enable-opengl --enable-sdl2 --enable-libdc1394 --enable-libdrm --enable-libiec61883 --enable-chromaprint --enable-frei0r --enable-libx264 --enable-shared\n",
      "  libavutil      56. 22.100 / 56. 22.100\n",
      "  libavcodec     58. 35.100 / 58. 35.100\n",
      "  libavformat    58. 20.100 / 58. 20.100\n",
      "  libavdevice    58.  5.100 / 58.  5.100\n",
      "  libavfilter     7. 40.101 /  7. 40.101\n",
      "  libavresample   4.  0.  0 /  4.  0.  0\n",
      "  libswscale      5.  3.100 /  5.  3.100\n",
      "  libswresample   3.  3.100 /  3.  3.100\n",
      "  libpostproc    55.  3.100 / 55.  3.100\n",
      "Converting WORK_DIR/DATA/TSAG_Rapporteur_Group_Morning_27_02_0_P1.mp3 to .wav format with sample rate 16000\n",
      "Input #0, mp3, from 'WORK_DIR/DATA/TSAG_Plenary_2_03_0_P4.mp3':\n",
      "  Duration: 01:13:02.48, start: 0.025057, bitrate: 66 kb/s\n",
      "    Stream #0:0: Audio: mp3, 44100 Hz, mono, fltp, 66 kb/s\n",
      "    Metadata:\n",
      "      encoder         : LAME3.100\n",
      "Stream mapping:\n",
      "  Stream #0:0 -> #0:0 (mp3 (mp3float) -> pcm_s16le (native))\n",
      "Press [q] to stop, [?] for help\n",
      "Converting WORK_DIR/DATA/TSAG_Rapporteur_Group_Morning_27_02_0_P2.mp3 to .wav format with sample rate 16000\n",
      "Converting WORK_DIR/DATA/TSAG_Rapporteur_Group_Morning_27_02_0_P3.mp3 to .wav format with sample rate 16000\n",
      "ffmpeg version 4.1.6-1~deb10u1 Copyright (c) 2000-2020 the FFmpeg developers\n",
      "  built with gcc 8 (Debian 8.3.0-6)\n",
      "  configuration: --prefix=/usr --extra-version='1~deb10u1' --toolchain=hardened --libdir=/usr/lib/x86_64-linux-gnu --incdir=/usr/include/x86_64-linux-gnu --arch=amd64 --enable-gpl --disable-stripping --enable-avresample --disable-filter=resample --enable-avisynth --enable-gnutls --enable-ladspa --enable-libaom --enable-libass --enable-libbluray --enable-libbs2b --enable-libcaca --enable-libcdio --enable-libcodec2 --enable-libflite --enable-libfontconfig --enable-libfreetype --enable-libfribidi --enable-libgme --enable-libgsm --enable-libjack --enable-libmp3lame --enable-libmysofa --enable-libopenjpeg --enable-libopenmpt --enable-libopus --enable-libpulse --enable-librsvg --enable-librubberband --enable-libshine --enable-libsnappy --enable-libsoxr --enable-libspeex --enable-libssh --enable-libtheora --enable-libtwolame --enable-libvidstab --enable-libvorbis --enable-libvpx --enable-libwavpack --enable-libwebp --enable-libx265 --enable-libxml2 --enable-libxvid --enable-libzmq --enable-libzvbi --enable-lv2 --enable-omx --enable-openal --enable-opengl --enable-sdl2 --enable-libdc1394 --enable-libdrm --enable-libiec61883 --enable-chromaprint --enable-frei0r --enable-libx264 --enable-shared\n",
      "  libavutil      56. 22.100 / 56. 22.100\n",
      "  libavcodec     58. 35.100 / 58. 35.100\n",
      "  libavformat    58. 20.100 / 58. 20.100\n",
      "  libavdevice    58.  5.100 / 58.  5.100\n",
      "  libavfilter     7. 40.101 /  7. 40.101\n",
      "  libavresample   4.  0.  0 /  4.  0.  0\n",
      "  libswscale      5.  3.100 /  5.  3.100\n",
      "  libswresample   3.  3.100 /  3.  3.100\n",
      "  libpostproc    55.  3.100 / 55.  3.100\n",
      "Converting WORK_DIR/DATA/TSAG_Rapporteur_Group_Morning_28_02_0_P1.mp3 to .wav format with sample rate 16000\n",
      "ffmpeg version 4.1.6-1~deb10u1 Copyright (c) 2000-2020 the FFmpeg developers\n",
      "  built with gcc 8 (Debian 8.3.0-6)\n",
      "  configuration: --prefix=/usr --extra-version='1~deb10u1' --toolchain=hardened --libdir=/usr/lib/x86_64-linux-gnu --incdir=/usr/include/x86_64-linux-gnu --arch=amd64 --enable-gpl --disable-stripping --enable-avresample --disable-filter=resample --enable-avisynth --enable-gnutls --enable-ladspa --enable-libaom --enable-libass --enable-libbluray --enable-libbs2b --enable-libcaca --enable-libcdio --enable-libcodec2 --enable-libflite --enable-libfontconfig --enable-libfreetype --enable-libfribidi --enable-libgme --enable-libgsm --enable-libjack --enable-libmp3lame --enable-libmysofa --enable-libopenjpeg --enable-libopenmpt --enable-libopus --enable-libpulse --enable-librsvg --enable-librubberband --enable-libshine --enable-libsnappy --enable-libsoxr --enable-libspeex --enable-libssh --enable-libtheora --enable-libtwolame --enable-libvidstab --enable-libvorbis --enable-libvpx --enable-libwavpack --enable-libwebp --enable-libx265 --enable-libxml2 --enable-libxvid --enable-libzmq --enable-libzvbi --enable-lv2 --enable-omx --enable-openal --enable-opengl --enable-sdl2 --enable-libdc1394 --enable-libdrm --enable-libiec61883 --enable-chromaprint --enable-frei0r --enable-libx264 --enable-shared\n",
      "  libavutil      56. 22.100 / 56. 22.100\n",
      "  libavcodec     58. 35.100 / 58. 35.100\n",
      "  libavformat    58. 20.100 / 58. 20.100\n",
      "  libavdevice    58.  5.100 / 58.  5.100\n",
      "  libavfilter     7. 40.101 /  7. 40.101\n",
      "  libavresample   4.  0.  0 /  4.  0.  0\n",
      "  libswscale      5.  3.100 /  5.  3.100\n",
      "  libswresample   3.  3.100 /  3.  3.100\n",
      "  libpostproc    55.  3.100 / 55.  3.100\n",
      "Input #0, mp3, from 'WORK_DIR/DATA/TSAG_Plenary_Morning_26_02_2018_0_P1.mp3':\n",
      "  Duration: 01:06:00.22, start: 0.025057, bitrate: 68 kb/s\n",
      "    Stream #0:0: Audio: mp3, 44100 Hz, mono, fltp, 68 kb/s\n",
      "    Metadata:\n",
      "      encoder         : LAME3.100\n",
      "Stream mapping:\n",
      "  Stream #0:0 -> #0:0 (mp3 (mp3float) -> pcm_s16le (native))\n",
      "Press [q] to stop, [?] for help\n",
      "Converting WORK_DIR/DATA/TSAG_Rapporteur_Group_Morning_28_02_0_P2.mp3 to .wav format with sample rate 16000\n",
      "ffmpeg version 4.1.6-1~deb10u1 Copyright (c) 2000-2020 the FFmpeg developers\n",
      "  built with gcc 8 (Debian 8.3.0-6)\n",
      "  configuration: --prefix=/usr --extra-version='1~deb10u1' --toolchain=hardened --libdir=/usr/lib/x86_64-linux-gnu --incdir=/usr/include/x86_64-linux-gnu --arch=amd64 --enable-gpl --disable-stripping --enable-avresample --disable-filter=resample --enable-avisynth --enable-gnutls --enable-ladspa --enable-libaom --enable-libass --enable-libbluray --enable-libbs2b --enable-libcaca --enable-libcdio --enable-libcodec2 --enable-libflite --enable-libfontconfig --enable-libfreetype --enable-libfribidi --enable-libgme --enable-libgsm --enable-libjack --enable-libmp3lame --enable-libmysofa --enable-libopenjpeg --enable-libopenmpt --enable-libopus --enable-libpulse --enable-librsvg --enable-librubberband --enable-libshine --enable-libsnappy --enable-libsoxr --enable-libspeex --enable-libssh --enable-libtheora --enable-libtwolame --enable-libvidstab --enable-libvorbis --enable-libvpx --enable-libwavpack --enable-libwebp --enable-libx265 --enable-libxml2 --enable-libxvid --enable-libzmq --enable-libzvbi --enable-lv2 --enable-omx --enable-openal --enable-opengl --enable-sdl2 --enable-libdc1394 --enable-libdrm --enable-libiec61883 --enable-chromaprint --enable-frei0r --enable-libx264 --enable-shared\n",
      "  libavutil      56. 22.100 / 56. 22.100\n",
      "  libavcodec     58. 35.100 / 58. 35.100\n",
      "  libavformat    58. 20.100 / 58. 20.100\n",
      "  libavdevice    58.  5.100 / 58.  5.100\n",
      "  libavfilter     7. 40.101 /  7. 40.101\n",
      "  libavresample   4.  0.  0 /  4.  0.  0\n",
      "  libswscale      5.  3.100 /  5.  3.100\n",
      "  libswresample   3.  3.100 /  3.  3.100\n",
      "  libpostproc    55.  3.100 / 55.  3.100\n",
      "Output #0, wav, to 'WORK_DIR/output_multiple_files/processed/TSAG_Plenary_2_03_0_P3.wav':\n",
      "  Metadata:\n",
      "    ISFT            : Lavf58.20.100\n",
      "    Stream #0:0: Audio: pcm_s16le ([1][0][0][0] / 0x0001), 16000 Hz, mono, s16, 256 kb/s\n",
      "Input #0, mp3, from 'WORK_DIR/DATA/TSAG_Plenary_Morning_26_02_2018_0_P2.mp3':\n",
      "    Metadata:\n",
      "      encoder         :   Duration: Lavc58.35.100 pcm_s16le00:44:01.63\n",
      ", start: 0.025057, bitrate: 65 kb/s\n",
      "    Stream #0:0: Audio: mp3, 44100 Hz, mono, fltp, 65 kb/s\n",
      "    Metadata:\n",
      "      encoder         : LAME3.100\n",
      "Stream mapping:\n",
      "  Stream #0:0 -> #0:0 (mp3 (mp3float) -> pcm_s16le (native))\n",
      "Press [q] to stop, [?] for help\n",
      "Input #0, mp3, from 'WORK_DIR/DATA/TSAG_Plenary_Morning_26_02_2018_0_P3.mp3':\n",
      "  Duration: 00:39:55.30, start: 0.025057, bitrate: 71 kb/s\n",
      "    Stream #0:0: Audio: mp3, 44100 Hz, mono, fltp, 71 kb/s\n",
      "    Metadata:\n",
      "      encoder         : LAME3.100\n",
      "Stream mapping:\n",
      "  Stream #0:0 -> #0:0 (mp3 (mp3float) -> pcm_s16le (native))\n",
      "Press [q] to stop, [?] for help\n",
      "ffmpeg version 4.1.6-1~deb10u1 Copyright (c) 2000-2020 the FFmpeg developers\n",
      "  built with gcc 8 (Debian 8.3.0-6)\n",
      "  configuration: --prefix=/usr --extra-version='1~deb10u1' --toolchain=hardened --libdir=/usr/lib/x86_64-linux-gnu --incdir=/usr/include/x86_64-linux-gnu --arch=amd64 --enable-gpl --disable-stripping --enable-avresample --disable-filter=resample --enable-avisynth --enable-gnutls --enable-ladspa --enable-libaom --enable-libass --enable-libbluray --enable-libbs2b --enable-libcaca --enable-libcdio --enable-libcodec2 --enable-libflite --enable-libfontconfig --enable-libfreetype --enable-libfribidi --enable-libgme --enable-libgsm --enable-libjack --enable-libmp3lame --enable-libmysofa --enable-libopenjpeg --enable-libopenmpt --enable-libopus --enable-libpulse --enable-librsvg --enable-librubberband --enable-libshine --enable-libsnappy --enable-libsoxr --enable-libspeex --enable-libssh --enable-libtheora --enable-libtwolame --enable-libvidstab --enable-libvorbis --enable-libvpx --enable-libwavpack --enable-libwebp --enable-libx265 --enable-libxml2 --enable-libxvid --enable-libzmq --enable-libzvbi --enable-lv2 --enable-omx --enable-openal --enable-opengl --enable-sdl2 --enable-libdc1394 --enable-libdrm --enable-libiec61883 --enable-chromaprint --enable-frei0r --enable-libx264 --enable-shared\n",
      "  libavutil      56. 22.100 / 56. 22.100\n",
      "  libavcodec     58. 35.100 / 58. 35.100\n",
      "  libavformat    58. 20.100 / 58. 20.100\n",
      "  libavdevice    58.  5.100 / 58.  5.100\n",
      "  libavfilter     7. 40.101 /  7. 40.101\n",
      "  libavresample   4.  0.  0 /  4.  0.  0\n",
      "  libswscale      5.  3.100 /  5.  3.100\n",
      "  libswresample   3.  3.100 /  3.  3.100\n",
      "  libpostproc    55.  3.100 / 55.  3.100\n",
      "Converting WORK_DIR/DATA/TSAG_Rapporteur_Group_Morning_28_02_0_P3.mp3 to .wav format with sample rate 16000\n"
     ]
    },
    {
     "name": "stdout",
     "output_type": "stream",
     "text": [
      "Converting WORK_DIR/DATA/TSAG_Rapporteur_Group_on_Strengthening_Cooperation_1_03_0_P1.mp3 to .wav format with sample rate 16000\n",
      "Input #0, mp3, from 'WORK_DIR/DATA/TSAG_Rapporteur_Group_Afternoon_27_02_0_P1.mp3':\n",
      "  Duration: 01:05:58.78, start: 0.025057, bitrate: 67 kb/s\n",
      "    Stream #0:0: Audio: mp3, 44100 Hz, mono, fltp, 67 kb/s\n",
      "    Metadata:\n",
      "      encoder         : LAME3.100\n",
      "Stream mapping:\n",
      "  Stream #0:0 -> #0:0 (mp3 (mp3float) -> pcm_s16le (native))\n",
      "Press [q] to stop, [?] for help\n",
      "Converting WORK_DIR/DATA/TSAG_Rapporteur_Group_on_Strengthening_Cooperation_1_03_0_P2.mp3 to .wav format with sample rate 16000\n",
      "Output #0, wav, to 'WORK_DIR/output_multiple_files/processed/TSAG_Plenary_2_03_0_P4.wav':\n",
      "  Metadata:\n",
      "    ISFT            : Lavf58.20.100\n",
      "    Stream #0:0: Audio: pcm_s16le ([1][0][0][0] / 0x0001), 16000 Hz, mono, s16, 256 kb/s\n",
      "    Metadata:\n",
      "      encoder         : Lavc58.35.100 pcm_s16le\n",
      "ffmpeg version 4.1.6-1~deb10u1 Copyright (c) 2000-2020 the FFmpeg developers\n",
      "  built with gcc 8 (Debian 8.3.0-6)\n",
      "  configuration: --prefix=/usr --extra-version='1~deb10u1' --toolchain=hardened --libdir=/usr/lib/x86_64-linux-gnu --incdir=/usr/include/x86_64-linux-gnu --arch=amd64 --enable-gpl --disable-stripping --enable-avresample --disable-filter=resample --enable-avisynth --enable-gnutls --enable-ladspa --enable-libaom --enable-libass --enable-libbluray --enable-libbs2b --enable-libcaca --enable-libcdio --enable-libcodec2 --enable-libflite --enable-libfontconfig --enable-libfreetype --enable-libfribidi --enable-libgme --enable-libgsm --enable-libjack --enable-libmp3lame --enable-libmysofa --enable-libopenjpeg --enable-libopenmpt --enable-libopus --enable-libpulse --enable-librsvg --enable-librubberband --enable-libshine --enable-libsnappy --enable-libsoxr --enable-libspeex --enable-libssh --enable-libtheora --enable-libtwolame --enable-libvidstab --enable-libvorbis --enable-libvpx --enable-libwavpack --enable-libwebp --enable-libx265 --enable-libxml2 --enable-libxvid --enable-libzmq --enable-libzvbi --enable-lv2 --enable-omx --enable-openal --enable-opengl --enable-sdl2 --enable-libdc1394 --enable-libdrm --enable-libiec61883 --enable-chromaprint --enable-frei0r --enable-libx264 --enable-shared\n",
      "  libavutil      56. 22.100 / 56. 22.100\n",
      "  libavcodec     58. 35.100 / 58. 35.100\n",
      "  libavformat    58. 20.100 / 58. 20.100\n",
      "  libavdevice    58.  5.100 / 58.  5.100\n",
      "  libavfilter     7. 40.101 /  7. 40.101\n",
      "  libavresample   4.  0.  0 /  4.  0.  0\n",
      "  libswscale      5.  3.100 /  5.  3.100\n",
      "  libswresample   3.  3.100 /  3.  3.100\n",
      "  libpostproc    55.  3.100 / 55.  3.100\n",
      "Converting WORK_DIR/DATA/TSAG_Rapporteur_Group_on_Strengthening_Cooperation_1_03_0_P3.mp3 to .wav format with sample rate 16000\n",
      "Converting WORK_DIR/DATA/TSAG_Rapporteur_Group_on_the_review_of_WTSA_Resolutions_1_03_0.mp3 to .wav format with sample rate 16000\n",
      "Input #0, mp3, from 'WORK_DIR/DATA/TSAG_Rapporteur_Group_Afternoon_27_02_0_P2.mp3':\n",
      "  Duration: 00:55:58.98, start: 0.025057, bitrate: 69 kb/s\n",
      "    Stream #0:0: Audio: mp3, 44100 Hz, mono, fltp, 69 kb/s\n",
      "    Metadata:\n",
      "      encoder         : LAME3.100\n",
      "Stream mapping:\n",
      "  Stream #0:0 -> #0:0 (mp3 (mp3float) -> pcm_s16le (native))\n",
      "Press [q] to stop, [?] for help\n",
      "Converting WORK_DIR/DATA/TSAG_Rapporteur_Group_on_Working_Methods_1_03_0_P1.mp3 to .wav format with sample rate 16000\n",
      "ffmpeg version 4.1.6-1~deb10u1 Copyright (c) 2000-2020 the FFmpeg developers\n",
      "  built with gcc 8 (Debian 8.3.0-6)\n",
      "  configuration: --prefix=/usr --extra-version='1~deb10u1' --toolchain=hardened --libdir=/usr/lib/x86_64-linux-gnu --incdir=/usr/include/x86_64-linux-gnu --arch=amd64 --enable-gpl --disable-stripping --enable-avresample --disable-filter=resample --enable-avisynth --enable-gnutls --enable-ladspa --enable-libaom --enable-libass --enable-libbluray --enable-libbs2b --enable-libcaca --enable-libcdio --enable-libcodec2 --enable-libflite --enable-libfontconfig --enable-libfreetype --enable-libfribidi --enable-libgme --enable-libgsm --enable-libjack --enable-libmp3lame --enable-libmysofa --enable-libopenjpeg --enable-libopenmpt --enable-libopus --enable-libpulse --enable-librsvg --enable-librubberband --enable-libshine --enable-libsnappy --enable-libsoxr --enable-libspeex --enable-libssh --enable-libtheora --enable-libtwolame --enable-libvidstab --enable-libvorbis --enable-libvpx --enable-libwavpack --enable-libwebp --enable-libx265 --enable-libxml2 --enable-libxvid --enable-libzmq --enable-libzvbi --enable-lv2 --enable-omx --enable-openal --enable-opengl --enable-sdl2 --enable-libdc1394 --enable-libdrm --enable-libiec61883 --enable-chromaprint --enable-frei0r --enable-libx264 --enable-shared\n",
      "  libavutil      56. 22.100 / 56. 22.100\n",
      "  libavcodec     58. 35.100 / 58. 35.100\n",
      "  libavformat    58. 20.100 / 58. 20.100\n",
      "  libavdevice    58.  5.100 / 58.  5.100\n",
      "  libavfilter     7. 40.101 /  7. 40.101\n",
      "  libavresample   4.  0.  0 /  4.  0.  0\n",
      "  libswscale      5.  3.100 /  5.  3.100\n",
      "  libswresample   3.  3.100 /  3.  3.100\n",
      "  libpostproc    55.  3.100 / 55.  3.100\n",
      "ffmpeg version 4.1.6-1~deb10u1 Copyright (c) 2000-2020 the FFmpeg developers\n",
      "  built with gcc 8 (Debian 8.3.0-6)\n",
      "  configuration: --prefix=/usr --extra-version='1~deb10u1' --toolchain=hardened --libdir=/usr/lib/x86_64-linux-gnu --incdir=/usr/include/x86_64-linux-gnu --arch=amd64 --enable-gpl --disable-stripping --enable-avresample --disable-filter=resample --enable-avisynth --enable-gnutls --enable-ladspa --enable-libaom --enable-libass --enable-libbluray --enable-libbs2b --enable-libcaca --enable-libcdio --enable-libcodec2 --enable-libflite --enable-libfontconfig --enable-libfreetype --enable-libfribidi --enable-libgme --enable-libgsm --enable-libjack --enable-libmp3lame --enable-libmysofa --enable-libopenjpeg --enable-libopenmpt --enable-libopus --enable-libpulse --enable-librsvg --enable-librubberband --enable-libshine --enable-libsnappy --enable-libsoxr --enable-libspeex --enable-libssh --enable-libtheora --enable-libtwolame --enable-libvidstab --enable-libvorbis --enable-libvpx --enable-libwavpack --enable-libwebp --enable-libx265 --enable-libxml2 --enable-libxvid --enable-libzmq --enable-libzvbi --enable-lv2 --enable-omx --enable-openal --enable-opengl --enable-sdl2 --enable-libdc1394 --enable-libdrm --enable-libiec61883 --enable-chromaprint --enable-frei0r --enable-libx264 --enable-shared\n",
      "  libavutil      56. 22.100 / 56. 22.100\n",
      "  libavcodec     58. 35.100 / 58. 35.100\n",
      "  libavformat    58. 20.100 / 58. 20.100\n",
      "  libavdevice    58.  5.100 / 58.  5.100\n",
      "  libavfilter     7. 40.101 /  7. 40.101\n",
      "  libavresample   4.  0.  0 /  4.  0.  0\n",
      "  libswscale      5.  3.100 /  5.  3.100\n",
      "  libswresample   3.  3.100 /  3.  3.100\n",
      "  libpostproc    55.  3.100 / 55.  3.100\n",
      "Converting WORK_DIR/DATA/TSAG_Rapporteur_Group_on_Working_Methods_1_03_0_P2.mp3 to .wav format with sample rate 16000\n",
      "Input #0, mp3, from 'WORK_DIR/DATA/TSAG_Rapporteur_Group_Afternoon_27_02_0_P3.mp3':\n",
      "  Duration: 00:34:16.14, start: 0.069063, bitrate: 47 kb/s\n",
      "    Stream #0:0: Audio: mp3, 16000 Hz, mono, fltp, 47 kb/s\n",
      "    Metadata:\n",
      "      encoder         : LAME3.100\n",
      "Stream mapping:\n",
      "  Stream #0:0 -> #0:0 (mp3 (mp3float) -> pcm_s16le (native))\n",
      "Press [q] to stop, [?] for help\n",
      "Input #0, mp3, from 'WORK_DIR/DATA/TSAG_Rapporteur_Group_Afternoon_28_02_0.mp3':\n",
      "  Duration: 01:15:07.24, start: 0.069063, bitrate: 47 kb/s\n",
      "    Stream #0:0: Audio: mp3, 16000 Hz, mono, fltp, 47 kb/s\n",
      "    Metadata:\n",
      "      encoder         : LAME3.100\n",
      "Stream mapping:\n",
      "  Stream #0:0 -> #0:0 (mp3 (mp3float) -> pcm_s16le (native))\n",
      "Press [q] to stop, [?] for help\n",
      "Output #0, wav, to 'WORK_DIR/output_multiple_files/processed/TSAG_Plenary_Morning_26_02_2018_0_P3.wav':\n",
      "Output #0, wav, to 'WORK_DIR/output_multiple_files/processed/TSAG_Plenary_Morning_26_02_2018_0_P1.wav':\n",
      "  Metadata:\n",
      "    ISFT            :   Metadata:\n",
      "Lavf58.20.100\n",
      "    ISFT            : Lavf58.20.100\n",
      "    Stream #0:0: Audio: pcm_s16le ([1][0][0][0] / 0x0001), 16000 Hz, mono, s16, 256 kb/s\n",
      "    Metadata:\n",
      "      encoder         : Lavc58.35.100 pcm_s16le\n",
      "    Stream #0:0: Audio: pcm_s16le ([1][0][0][0] / 0x0001), 16000 Hz, mono, s16, 256 kb/s\n",
      "    Metadata:\n",
      "      encoder         : Lavc58.35.100 pcm_s16le\n",
      "ffmpeg version 4.1.6-1~deb10u1 Copyright (c) 2000-2020 the FFmpeg developers\n",
      "  built with gcc 8 (Debian 8.3.0-6)\n",
      "  configuration: --prefix=/usr --extra-version='1~deb10u1' --toolchain=hardened --libdir=/usr/lib/x86_64-linux-gnu --incdir=/usr/include/x86_64-linux-gnu --arch=amd64 --enable-gpl --disable-stripping --enable-avresample --disable-filter=resample --enable-avisynth --enable-gnutls --enable-ladspa --enable-libaom --enable-libass --enable-libbluray --enable-libbs2b --enable-libcaca --enable-libcdio --enable-libcodec2 --enable-libflite --enable-libfontconfig --enable-libfreetype --enable-libfribidi --enable-libgme --enable-libgsm --enable-libjack --enable-libmp3lame --enable-libmysofa --enable-libopenjpeg --enable-libopenmpt --enable-libopus --enable-libpulse --enable-librsvg --enable-librubberband --enable-libshine --enable-libsnappy --enable-libsoxr --enable-libspeex --enable-libssh --enable-libtheora --enable-libtwolame --enable-libvidstab --enable-libvorbis --enable-libvpx --enable-libwavpack --enable-libwebp --enable-libx265 --enable-libxml2 --enable-libxvid --enable-libzmq --enable-libzvbi --enable-lv2 --enable-omx --enable-openal --enable-opengl --enable-sdl2 --enable-libdc1394 --enable-libdrm --enable-libiec61883 --enable-chromaprint --enable-frei0r --enable-libx264 --enable-shared\n",
      "  libavutil      56. 22.100 / 56. 22.100\n",
      "  libavcodec     58. 35.100 / 58. 35.100\n",
      "  libavformat    58. 20.100 / 58. 20.100\n",
      "  libavdevice    58.  5.100 / 58.  5.100\n",
      "  libavfilter     7. 40.101 /  7. 40.101\n",
      "  libavresample   4.  0.  0 /  4.  0.  0\n",
      "  libswscale      5.  3.100 /  5.  3.100\n",
      "  libswresample   3.  3.100 /  3.  3.100\n",
      "  libpostproc    55.  3.100 / 55.  3.100\n",
      "Output #0, wav, to 'WORK_DIR/output_multiple_files/processed/TSAG_Plenary_Morning_26_02_2018_0_P2.wav':\n",
      "  Metadata:\n",
      "    ISFT            : Lavf58.20.100\n",
      "    Stream #0:0: Audio: pcm_s16le ([1][0][0][0] / 0x0001), 16000 Hz, mono, s16, 256 kb/s\n",
      "    Metadata:\n",
      "      encoder         : Lavc58.35.100 pcm_s16le\n",
      "ffmpeg version 4.1.6-1~deb10u1 Copyright (c) 2000-2020 the FFmpeg developers\n",
      "  built with gcc 8 (Debian 8.3.0-6)\n",
      "  configuration: --prefix=/usr --extra-version='1~deb10u1' --toolchain=hardened --libdir=/usr/lib/x86_64-linux-gnu --incdir=/usr/include/x86_64-linux-gnu --arch=amd64 --enable-gpl --disable-stripping --enable-avresample --disable-filter=resample --enable-avisynth --enable-gnutls --enable-ladspa --enable-libaom --enable-libass --enable-libbluray --enable-libbs2b --enable-libcaca --enable-libcdio --enable-libcodec2 --enable-libflite --enable-libfontconfig --enable-libfreetype --enable-libfribidi --enable-libgme --enable-libgsm --enable-libjack --enable-libmp3lame --enable-libmysofa --enable-libopenjpeg --enable-libopenmpt --enable-libopus --enable-libpulse --enable-librsvg --enable-librubberband --enable-libshine --enable-libsnappy --enable-libsoxr --enable-libspeex --enable-libssh --enable-libtheora --enable-libtwolame --enable-libvidstab --enable-libvorbis --enable-libvpx --enable-libwavpack --enable-libwebp --enable-libx265 --enable-libxml2 --enable-libxvid --enable-libzmq --enable-libzvbi --enable-lv2 --enable-omx --enable-openal --enable-opengl --enable-sdl2 --enable-libdc1394 --enable-libdrm --enable-libiec61883 --enable-chromaprint --enable-frei0r --enable-libx264 --enable-shared\n",
      "  libavutil      56. 22.100 / 56. 22.100\n",
      "  libavcodec     58. 35.100 / 58. 35.100\n",
      "  libavformat    58. 20.100 / 58. 20.100\n",
      "  libavdevice    58.  5.100 / 58.  5.100\n",
      "  libavfilter     7. 40.101 /  7. 40.101\n",
      "  libavresample   4.  0.  0 /  4.  0.  0\n",
      "  libswscale      5.  3.100 /  5.  3.100\n",
      "  libswresample   3.  3.100 /  3.  3.100\n",
      "  libpostproc    55.  3.100 / 55.  3.100\n",
      "Output #0, wav, to 'WORK_DIR/output_multiple_files/processed/TSAG_Rapporteur_Group_Afternoon_27_02_0_P1.wav':\n",
      "  Metadata:\n",
      "    ISFT            : Lavf58.20.100\n",
      "    Stream #0:0: Audio: pcm_s16le ([1][0][0][0] / 0x0001), 16000 Hz, mono, s16, 256 kb/s\n",
      "    Metadata:\n",
      "      encoder         : Lavc58.35.100 pcm_s16le\n",
      "Input #0, mp3, from 'WORK_DIR/DATA/TSAG_Rapporteur_Group_Morning_27_02_0_P1.mp3':\n",
      "  Duration: 01:01:30.19, start: 0.025057, bitrate: 64 kb/s\n",
      "    Stream #0:0: Audio: mp3, 44100 Hz, mono, fltp, 64 kb/s\n",
      "    Metadata:\n",
      "      encoder         : LAME3.100\n",
      "Stream mapping:\n",
      "  Stream #0:0 -> #0:0 (mp3 (mp3float) -> pcm_s16le (native))\n",
      "Press [q] to stop, [?] for help\n",
      "Input #0, mp3, from 'WORK_DIR/DATA/TSAG_Rapporteur_Group_Morning_27_02_0_P3.mp3':\n",
      "  Duration: 00:33:47.56, start: 0.069063, bitrate: 48 kb/s\n",
      "    Stream #0:0: Audio: mp3, 16000 Hz, mono, fltp, 48 kb/s\n",
      "    Metadata:\n",
      "      encoder         : LAME3.100\n",
      "Stream mapping:\n",
      "  Stream #0:0 -> #0:0 (mp3 (mp3float) -> pcm_s16le (native))\n",
      "Press [q] to stop, [?] for help\n"
     ]
    },
    {
     "name": "stdout",
     "output_type": "stream",
     "text": [
      "Output #0, wav, to 'WORK_DIR/output_multiple_files/processed/TSAG_Rapporteur_Group_Afternoon_27_02_0_P2.wav':\n",
      "  Metadata:\n",
      "    ISFT            : Lavf58.20.100\n",
      "    Stream #0:0: Audio: pcm_s16le ([1][0][0][0] / 0x0001), 16000 Hz, mono, s16, 256 kb/s\n",
      "    Metadata:\n",
      "      encoder         : Lavc58.35.100 pcm_s16le\n",
      "ffmpeg version 4.1.6-1~deb10u1 Copyright (c) 2000-2020 the FFmpeg developers\n",
      "  built with gcc 8 (Debian 8.3.0-6)\n",
      "  configuration: --prefix=/usr --extra-version='1~deb10u1' --toolchain=hardened --libdir=/usr/lib/x86_64-linux-gnu --incdir=/usr/include/x86_64-linux-gnu --arch=amd64 --enable-gpl --disable-stripping --enable-avresample --disable-filter=resample --enable-avisynth --enable-gnutls --enable-ladspa --enable-libaom --enable-libass --enable-libbluray --enable-libbs2b --enable-libcaca --enable-libcdio --enable-libcodec2 --enable-libflite --enable-libfontconfig --enable-libfreetype --enable-libfribidi --enable-libgme --enable-libgsm --enable-libjack --enable-libmp3lame --enable-libmysofa --enable-libopenjpeg --enable-libopenmpt --enable-libopus --enable-libpulse --enable-librsvg --enable-librubberband --enable-libshine --enable-libsnappy --enable-libsoxr --enable-libspeex --enable-libssh --enable-libtheora --enable-libtwolame --enable-libvidstab --enable-libvorbis --enable-libvpx --enable-libwavpack --enable-libwebp --enable-libx265 --enable-libxml2 --enable-libxvid --enable-libzmq --enable-libzvbi --enable-lv2 --enable-omx --enable-openal --enable-opengl --enable-sdl2 --enable-libdc1394 --enable-libdrm --enable-libiec61883 --enable-chromaprint --enable-frei0r --enable-libx264 --enable-shared\n",
      "  libavutil      56. 22.100 / 56. 22.100\n",
      "  libavcodec     58. 35.100 / 58. 35.100\n",
      "  libavformat    58. 20.100 / 58. 20.100\n",
      "  libavdevice    58.  5.100 / 58.  5.100\n",
      "  libavfilter     7. 40.101 /  7. 40.101\n",
      "  libavresample   4.  0.  0 /  4.  0.  0\n",
      "  libswscale      5.  3.100 /  5.  3.100\n",
      "  libswresample   3.  3.100 /  3.  3.100\n",
      "  libpostproc    55.  3.100 / 55.  3.100\n",
      "ffmpeg version 4.1.6-1~deb10u1 Copyright (c) 2000-2020 the FFmpeg developers\n",
      "  built with gcc 8 (Debian 8.3.0-6)\n",
      "  configuration: --prefix=/usr --extra-version='1~deb10u1' --toolchain=hardened --libdir=/usr/lib/x86_64-linux-gnu --incdir=/usr/include/x86_64-linux-gnu --arch=amd64 --enable-gpl --disable-stripping --enable-avresample --disable-filter=resample --enable-avisynth --enable-gnutls --enable-ladspa --enable-libaom --enable-libass --enable-libbluray --enable-libbs2b --enable-libcaca --enable-libcdio --enable-libcodec2 --enable-libflite --enable-libfontconfig --enable-libfreetype --enable-libfribidi --enable-libgme --enable-libgsm --enable-libjack --enable-libmp3lame --enable-libmysofa --enable-libopenjpeg --enable-libopenmpt --enable-libopus --enable-libpulse --enable-librsvg --enable-librubberband --enable-libshine --enable-libsnappy --enable-libsoxr --enable-libspeex --enable-libssh --enable-libtheora --enable-libtwolame --enable-libvidstab --enable-libvorbis --enable-libvpx --enable-libwavpack --enable-libwebp --enable-libx265 --enable-libxml2 --enable-libxvid --enable-libzmq --enable-libzvbi --enable-lv2 --enable-omx --enable-openal --enable-opengl --enable-sdl2 --enable-libdc1394 --enable-libdrm --enable-libiec61883 --enable-chromaprint --enable-frei0r --enable-libx264 --enable-shared\n",
      "  libavutil      56. 22.100 / 56. 22.100\n",
      "  libavcodec     58. 35.100 / 58. 35.100\n",
      "  libavformat    58. 20.100 / 58. 20.100\n",
      "  libavdevice    58.  5.100 / 58.  5.100\n",
      "  libavfilter     7. 40.101 /  7. 40.101\n",
      "  libavresample   4.  0.  0 /  4.  0.  0\n",
      "  libswscale      5.  3.100 /  5.  3.100\n",
      "  libswresample   3.  3.100 /  3.  3.100\n",
      "  libpostproc    55.  3.100 / 55.  3.100\n",
      "Input #0, mp3, from 'WORK_DIR/DATA/TSAG_Rapporteur_Group_Morning_28_02_0_P2.mp3':\n",
      "  Duration: 01:00:06.99, start: 0.025057, bitrate: 64 kb/s\n",
      "    Stream #0:0: Audio: mp3, 44100 Hz, mono, fltp, 64 kb/s\n",
      "    Metadata:\n",
      "      encoder         : LAME3.100\n",
      "ffmpeg version 4.1.6-1~deb10u1 Copyright (c) 2000-2020 the FFmpeg developers\n",
      "  built with gcc 8 (Debian 8.3.0-6)\n",
      "  configuration: --prefix=/usr --extra-version='1~deb10u1' --toolchain=hardened --libdir=/usr/lib/x86_64-linux-gnu --incdir=/usr/include/x86_64-linux-gnu --arch=amd64 --enable-gpl --disable-stripping --enable-avresample --disable-filter=resample --enable-avisynth --enable-gnutls --enable-ladspa --enable-libaom --enable-libass --enable-libbluray --enable-libbs2b --enable-libcaca --enable-libcdio --enable-libcodec2 --enable-libflite --enable-libfontconfig --enable-libfreetype --enable-libfribidi --enable-libgme --enable-libgsm --enable-libjack --enable-libmp3lame --enable-libmysofa --enable-libopenjpeg --enable-libopenmpt --enable-libopus --enable-libpulse --enable-librsvg --enable-librubberband --enable-libshine --enable-libsnappy --enable-libsoxr --enable-libspeex --enable-libssh --enable-libtheora --enable-libtwolame --enable-libvidstab --enable-libvorbis --enable-libvpx --enable-libwavpack --enable-libwebp --enable-libx265 --enable-libxml2 --enable-libxvid --enable-libzmq --enable-libzvbi --enable-lv2 --enable-omx --enable-openal --enable-opengl --enable-sdl2 --enable-libdc1394 --enable-libdrm --enable-libiec61883 --enable-chromaprint --enable-frei0r --enable-libx264 --enable-shared\n",
      "  libavutil      56. 22.100 / 56. 22.100\n",
      "  libavcodec     58. 35.100 / 58. 35.100\n",
      "  libavformat    58. 20.100 / 58. 20.100\n",
      "  libavdevice    58.  5.100 / 58.  5.100\n",
      "  libavfilter     7. 40.101 /  7. 40.101\n",
      "  libavresample   4.  0.  0 /  4.  0.  0\n",
      "  libswscale      5.  3.100 /  5.  3.100\n",
      "  libswresample   3.  3.100 /  3.  3.100\n",
      "  libpostproc    55.  3.100 / 55.  3.100\n",
      "Output #0, wav, to 'WORK_DIR/output_multiple_files/processed/TSAG_Rapporteur_Group_Afternoon_27_02_0_P3.wav':\n",
      "  Metadata:\n",
      "    ISFT            : Lavf58.20.100\n",
      "Output #0, wav, to 'WORK_DIR/output_multiple_files/processed/TSAG_Rapporteur_Group_Afternoon_28_02_0.wav':\n",
      "  Metadata:\n",
      "    ISFT            : Lavf58.20.100\n",
      "    Stream #0:0: Audio: pcm_s16le ([1][0][0][0] / 0x0001), 16000 Hz, mono, s16, 256 kb/s\n",
      "    Metadata:\n",
      "      encoder         : Lavc58.35.100 pcm_s16le\n",
      "    Stream #0:0: Audio: pcm_s16le ([1][0][0][0] / 0x0001), 16000 Hz, mono, s16, 256 kb/s\n",
      "    Metadata:\n",
      "      encoder         : Lavc58.35.100 pcm_s16le\n",
      "ffmpeg version 4.1.6-1~deb10u1 Copyright (c) 2000-2020 the FFmpeg developers\n",
      "  built with gcc 8 (Debian 8.3.0-6)\n",
      "  configuration: --prefix=/usr --extra-version='1~deb10u1' --toolchain=hardened --libdir=/usr/lib/x86_64-linux-gnu --incdir=/usr/include/x86_64-linux-gnu --arch=amd64 --enable-gpl --disable-stripping --enable-avresample --disable-filter=resample --enable-avisynth --enable-gnutls --enable-ladspa --enable-libaom --enable-libass --enable-libbluray --enable-libbs2b --enable-libcaca --enable-libcdio --enable-libcodec2 --enable-libflite --enable-libfontconfig --enable-libfreetype --enable-libfribidi --enable-libgme --enable-libgsm --enable-libjack --enable-libmp3lame --enable-libmysofa --enable-libopenjpeg --enable-libopenmpt --enable-libopus --enable-libpulse --enable-librsvg --enable-librubberband --enable-libshine --enable-libsnappy --enable-libsoxr --enable-libspeex --enable-libssh --enable-libtheora --enable-libtwolame --enable-libvidstab --enable-libvorbis --enable-libvpx --enable-libwavpack --enable-libwebp --enable-libx265 --enable-libxml2 --enable-libxvid --enable-libzmq --enable-libzvbi --enable-lv2 --enable-omx --enable-openal --enable-opengl --enable-sdl2 --enable-libdc1394 --enable-libdrm --enable-libiec61883 --enable-chromaprint --enable-frei0r --enable-libx264 --enable-shared\n",
      "  libavutil      56. 22.100 / 56. 22.100\n",
      "  libavcodec     58. 35.100 / 58. 35.100\n",
      "  libavformat    58. 20.100 / 58. 20.100\n",
      "  libavdevice    58.  5.100 / 58.  5.100\n",
      "  libavfilter     7. 40.101 /  7. 40.101\n",
      "  libavresample   4.  0.  0 /  4.  0.  0\n",
      "  libswscale      5.  3.100 /  5.  3.100\n",
      "  libswresample   3.  3.100 /  3.  3.100\n",
      "  libpostproc    55.  3.100 / 55.  3.100\n",
      "Stream mapping:\n",
      "  Stream #0:0 -> #0:0 (mp3 (mp3float) -> pcm_s16le (native))\n",
      "Press [q] to stop, [?] for help\n",
      "ffmpeg version 4.1.6-1~deb10u1 Copyright (c) 2000-2020 the FFmpeg developers\n",
      "  built with gcc 8 (Debian 8.3.0-6)\n",
      "  configuration: --prefix=/usr --extra-version='1~deb10u1' --toolchain=hardened --libdir=/usr/lib/x86_64-linux-gnu --incdir=/usr/include/x86_64-linux-gnu --arch=amd64 --enable-gpl --disable-stripping --enable-avresample --disable-filter=resample --enable-avisynth --enable-gnutls --enable-ladspa --enable-libaom --enable-libass --enable-libbluray --enable-libbs2b --enable-libcaca --enable-libcdio --enable-libcodec2 --enable-libflite --enable-libfontconfig --enable-libfreetype --enable-libfribidi --enable-libgme --enable-libgsm --enable-libjack --enable-libmp3lame --enable-libmysofa --enable-libopenjpeg --enable-libopenmpt --enable-libopus --enable-libpulse --enable-librsvg --enable-librubberband --enable-libshine --enable-libsnappy --enable-libsoxr --enable-libspeex --enable-libssh --enable-libtheora --enable-libtwolame --enable-libvidstab --enable-libvorbis --enable-libvpx --enable-libwavpack --enable-libwebp --enable-libx265 --enable-libxml2 --enable-libxvid --enable-libzmq --enable-libzvbi --enable-lv2 --enable-omx --enable-openal --enable-opengl --enable-sdl2 --enable-libdc1394 --enable-libdrm --enable-libiec61883 --enable-chromaprint --enable-frei0r --enable-libx264 --enable-shared\n",
      "  libavutil      56. 22.100 / 56. 22.100\n",
      "  libavcodec     58. 35.100 / 58. 35.100\n",
      "  libavformat    58. 20.100 / 58. 20.100\n",
      "  libavdevice    58.  5.100 / 58.  5.100\n",
      "  libavfilter     7. 40.101 /  7. 40.101\n",
      "  libavresample   4.  0.  0 /  4.  0.  0\n",
      "  libswscale      5.  3.100 /  5.  3.100\n",
      "  libswresample   3.  3.100 /  3.  3.100\n",
      "  libpostproc    55.  3.100 / 55.  3.100\n",
      "Input #0, mp3, from 'WORK_DIR/DATA/TSAG_Rapporteur_Group_Morning_28_02_0_P3.mp3':\n",
      "  Duration: 00:47:27.67, start: 0.069063, bitrate: 46 kb/s\n",
      "    Stream #0:0: Audio: mp3, 16000 Hz, mono, fltp, 46 kb/s\n",
      "    Metadata:\n",
      "      encoder         : LAME3.100\n",
      "Stream mapping:\n",
      "  Stream #0:0 -> #0:0 (mp3 (mp3float) -> pcm_s16le (native))\n",
      "Press [q] to stop, [?] for help\n",
      "Input #0, mp3, from 'WORK_DIR/DATA/TSAG_Rapporteur_Group_Morning_27_02_0_P2.mp3':\n",
      "Input #0, mp3, from 'WORK_DIR/DATA/TSAG_Rapporteur_Group_Morning_28_02_0_P1.mp3':\n",
      "  Duration: 01:05:39.55, start: 0.025057, bitrate: 66 kb/s\n",
      "    Stream #0:0: Audio: mp3, 44100 Hz, mono, fltp, 66 kb/s\n",
      "    Metadata:\n",
      "      encoder         : LAME3.100\n",
      "  Duration: 01:00:33.27, start: 0.025057, bitrate: 66 kb/s\n",
      "    Stream #0:0: Audio: mp3, 44100 Hz, mono, fltp, 66 kb/s\n",
      "    Metadata:\n",
      "      encoder         : LAME3.100\n",
      "Output #0, wav, to 'WORK_DIR/output_multiple_files/processed/TSAG_Rapporteur_Group_Morning_27_02_0_P1.wav':\n",
      "  Metadata:\n",
      "    ISFT            : Lavf58.20.100\n",
      "    Stream #0:0: Audio: pcm_s16le ([1][0][0][0] / 0x0001), 16000 Hz, mono, s16, 256 kb/s\n",
      "    Metadata:\n",
      "      encoder         : Lavc58.35.100 pcm_s16le\n"
     ]
    },
    {
     "name": "stdout",
     "output_type": "stream",
     "text": [
      "Stream mapping:\n",
      "  Stream #0:0 -> #0:0 (mp3 (mp3float) -> pcm_s16le (native))\n",
      "Press [q] to stop, [?] for help\n",
      "Stream mapping:\n",
      "  Stream #0:0 -> #0:0 (mp3 (mp3float) -> pcm_s16le (native))\n",
      "Press [q] to stop, [?] for help\n",
      "Input #0, mp3, from 'WORK_DIR/DATA/TSAG_Rapporteur_Group_on_Strengthening_Cooperation_1_03_0_P1.mp3':\n",
      "  Duration: 00:56:38.53, start: 0.025057, bitrate: 70 kb/s\n",
      "    Stream #0:0: Audio: mp3, 44100 Hz, mono, fltp, 70 kb/s\n",
      "    Metadata:\n",
      "      encoder         : LAME3.100\n",
      "Stream mapping:\n",
      "  Stream #0:0 -> #0:0 (mp3 (mp3float) -> pcm_s16le (native))\n",
      "Press [q] to stop, [?] for help\n",
      "Output #0, wav, to 'WORK_DIR/output_multiple_files/processed/TSAG_Rapporteur_Group_Morning_27_02_0_P3.wav':\n",
      "  Metadata:\n",
      "    ISFT            : Lavf58.20.100\n",
      "    Stream #0:0: Audio: pcm_s16le ([1][0][0][0] / 0x0001), 16000 Hz, mono, s16, 256 kb/s\n",
      "    Metadata:\n",
      "      encoder         : Lavc58.35.100 pcm_s16le\n",
      "ffmpeg version 4.1.6-1~deb10u1 Copyright (c) 2000-2020 the FFmpeg developers\n",
      "  built with gcc 8 (Debian 8.3.0-6)\n",
      "  configuration: --prefix=/usr --extra-version='1~deb10u1' --toolchain=hardened --libdir=/usr/lib/x86_64-linux-gnu --incdir=/usr/include/x86_64-linux-gnu --arch=amd64 --enable-gpl --disable-stripping --enable-avresample --disable-filter=resample --enable-avisynth --enable-gnutls --enable-ladspa --enable-libaom --enable-libass --enable-libbluray --enable-libbs2b --enable-libcaca --enable-libcdio --enable-libcodec2 --enable-libflite --enable-libfontconfig --enable-libfreetype --enable-libfribidi --enable-libgme --enable-libgsm --enable-libjack --enable-libmp3lame --enable-libmysofa --enable-libopenjpeg --enable-libopenmpt --enable-libopus --enable-libpulse --enable-librsvg --enable-librubberband --enable-libshine --enable-libsnappy --enable-libsoxr --enable-libspeex --enable-libssh --enable-libtheora --enable-libtwolame --enable-libvidstab --enable-libvorbis --enable-libvpx --enable-libwavpack --enable-libwebp --enable-libx265 --enable-libxml2 --enable-libxvid --enable-libzmq --enable-libzvbi --enable-lv2 --enable-omx --enable-openal --enable-opengl --enable-sdl2 --enable-libdc1394 --enable-libdrm --enable-libiec61883 --enable-chromaprint --enable-frei0r --enable-libx264 --enable-shared\n",
      "  libavutil      56. 22.100 / 56. 22.100\n",
      "  libavcodec     58. 35.100 / 58. 35.100\n",
      "  libavformat    58. 20.100 / 58. 20.100\n",
      "  libavdevice    58.  5.100 / 58.  5.100\n",
      "  libavfilter     7. 40.101 /  7. 40.101\n",
      "  libavresample   4.  0.  0 /  4.  0.  0\n",
      "  libswscale      5.  3.100 /  5.  3.100\n",
      "  libswresample   3.  3.100 /  3.  3.100\n",
      "  libpostproc    55.  3.100 / 55.  3.100\n",
      "Output #0, wav, to 'WORK_DIR/output_multiple_files/processed/TSAG_Rapporteur_Group_Morning_28_02_0_P2.wav':\n",
      "  Metadata:\n",
      "    ISFT            : Lavf58.20.100\n",
      "    Stream #0:0: Audio: pcm_s16le ([1][0][0][0] / 0x0001), 16000 Hz, mono, s16, 256 kb/s\n",
      "    Metadata:\n",
      "      encoder         : Lavc58.35.100 pcm_s16le\n",
      "ffmpeg version 4.1.6-1~deb10u1 Copyright (c) 2000-2020 the FFmpeg developers\n",
      "  built with gcc 8 (Debian 8.3.0-6)\n",
      "  configuration: --prefix=/usr --extra-version='1~deb10u1' --toolchain=hardened --libdir=/usr/lib/x86_64-linux-gnu --incdir=/usr/include/x86_64-linux-gnu --arch=amd64 --enable-gpl --disable-stripping --enable-avresample --disable-filter=resample --enable-avisynth --enable-gnutls --enable-ladspa --enable-libaom --enable-libass --enable-libbluray --enable-libbs2b --enable-libcaca --enable-libcdio --enable-libcodec2 --enable-libflite --enable-libfontconfig --enable-libfreetype --enable-libfribidi --enable-libgme --enable-libgsm --enable-libjack --enable-libmp3lame --enable-libmysofa --enable-libopenjpeg --enable-libopenmpt --enable-libopus --enable-libpulse --enable-librsvg --enable-librubberband --enable-libshine --enable-libsnappy --enable-libsoxr --enable-libspeex --enable-libssh --enable-libtheora --enable-libtwolame --enable-libvidstab --enable-libvorbis --enable-libvpx --enable-libwavpack --enable-libwebp --enable-libx265 --enable-libxml2 --enable-libxvid --enable-libzmq --enable-libzvbi --enable-lv2 --enable-omx --enable-openal --enable-opengl --enable-sdl2 --enable-libdc1394 --enable-libdrm --enable-libiec61883 --enable-chromaprint --enable-frei0r --enable-libx264 --enable-shared\n",
      "  libavutil      56. 22.100 / 56. 22.100\n",
      "  libavcodec     58. 35.100 / 58. 35.100\n",
      "  libavformat    58. 20.100 / 58. 20.100\n",
      "  libavdevice    58.  5.100 / 58.  5.100\n",
      "  libavfilter     7. 40.101 /  7. 40.101\n",
      "  libavresample   4.  0.  0 /  4.  0.  0\n",
      "  libswscale      5.  3.100 /  5.  3.100\n",
      "  libswresample   3.  3.100 /  3.  3.100\n",
      "  libpostproc    55.  3.100 / 55.  3.100\n",
      "ffmpeg version 4.1.6-1~deb10u1 Copyright (c) 2000-2020 the FFmpeg developers\n",
      "  built with gcc 8 (Debian 8.3.0-6)\n",
      "  configuration: --prefix=/usr --extra-version='1~deb10u1' --toolchain=hardened --libdir=/usr/lib/x86_64-linux-gnu --incdir=/usr/include/x86_64-linux-gnu --arch=amd64 --enable-gpl --disable-stripping --enable-avresample --disable-filter=resample --enable-avisynth --enable-gnutls --enable-ladspa --enable-libaom --enable-libass --enable-libbluray --enable-libbs2b --enable-libcaca --enable-libcdio --enable-libcodec2 --enable-libflite --enable-libfontconfig --enable-libfreetype --enable-libfribidi --enable-libgme --enable-libgsm --enable-libjack --enable-libmp3lame --enable-libmysofa --enable-libopenjpeg --enable-libopenmpt --enable-libopus --enable-libpulse --enable-librsvg --enable-librubberband --enable-libshine --enable-libsnappy --enable-libsoxr --enable-libspeex --enable-libssh --enable-libtheora --enable-libtwolame --enable-libvidstab --enable-libvorbis --enable-libvpx --enable-libwavpack --enable-libwebp --enable-libx265 --enable-libxml2 --enable-libxvid --enable-libzmq --enable-libzvbi --enable-lv2 --enable-omx --enable-openal --enable-opengl --enable-sdl2 --enable-libdc1394 --enable-libdrm --enable-libiec61883 --enable-chromaprint --enable-frei0r --enable-libx264 --enable-shared\n",
      "  libavutil      56. 22.100 / 56. 22.100\n",
      "  libavcodec     58. 35.100 / 58. 35.100\n",
      "  libavformat    58. 20.100 / 58. 20.100\n",
      "  libavdevice    58.  5.100 / 58.  5.100\n",
      "  libavfilter     7. 40.101 /  7. 40.101\n",
      "  libavresample   4.  0.  0 /  4.  0.  0\n",
      "  libswscale      5.  3.100 /  5.  3.100\n",
      "  libswresample   3.  3.100 /  3.  3.100\n",
      "  libpostproc    55.  3.100 / 55.  3.100\n",
      "ffmpeg version 4.1.6-1~deb10u1 Copyright (c) 2000-2020 the FFmpeg developers\n",
      "  built with gcc 8 (Debian 8.3.0-6)\n",
      "  configuration: --prefix=/usr --extra-version='1~deb10u1' --toolchain=hardened --libdir=/usr/lib/x86_64-linux-gnu --incdir=/usr/include/x86_64-linux-gnu --arch=amd64 --enable-gpl --disable-stripping --enable-avresample --disable-filter=resample --enable-avisynth --enable-gnutls --enable-ladspa --enable-libaom --enable-libass --enable-libbluray --enable-libbs2b --enable-libcaca --enable-libcdio --enable-libcodec2 --enable-libflite --enable-libfontconfig --enable-libfreetype --enable-libfribidi --enable-libgme --enable-libgsm --enable-libjack --enable-libmp3lame --enable-libmysofa --enable-libopenjpeg --enable-libopenmpt --enable-libopus --enable-libpulse --enable-librsvg --enable-librubberband --enable-libshine --enable-libsnappy --enable-libsoxr --enable-libspeex --enable-libssh --enable-libtheora --enable-libtwolame --enable-libvidstab --enable-libvorbis --enable-libvpx --enable-libwavpack --enable-libwebp --enable-libx265 --enable-libxml2 --enable-libxvid --enable-libzmq --enable-libzvbi --enable-lv2 --enable-omx --enable-openal --enable-opengl --enable-sdl2 --enable-libdc1394 --enable-libdrm --enable-libiec61883 --enable-chromaprint --enable-frei0r --enable-libx264 --enable-shared\n",
      "  libavutil      56. 22.100 / 56. 22.100\n",
      "  libavcodec     58. 35.100 / 58. 35.100\n",
      "  libavformat    58. 20.100 / 58. 20.100\n",
      "  libavdevice    58.  5.100 / 58.  5.100\n",
      "  libavfilter     7. 40.101 /  7. 40.101\n",
      "  libavresample   4.  0.  0 /  4.  0.  0\n",
      "  libswscale      5.  3.100 /  5.  3.100\n",
      "  libswresample   3.  3.100 /  3.  3.100\n",
      "  libpostproc    55.  3.100 / 55.  3.100\n",
      "Input #0, mp3, from 'WORK_DIR/DATA/TSAG_Rapporteur_Group_on_Working_Methods_1_03_0_P1.mp3':\n",
      "  Duration: 00:57:30.91, start: 0.025057, bitrate: 74 kb/s\n",
      "    Stream #0:0: Audio: mp3, 44100 Hz, mono, fltp, 74 kb/s\n",
      "    Metadata:\n",
      "      encoder         : LAME3.100\n",
      "Output #0, wav, to 'WORK_DIR/output_multiple_files/processed/TSAG_Rapporteur_Group_Morning_27_02_0_P2.wav':\n",
      "  Metadata:\n",
      "    ISFT            : Lavf58.20.100\n",
      "    Stream #0:0: Audio: pcm_s16le ([1][0][0][0] / 0x0001), 16000 Hz, mono, s16, 256 kb/s\n",
      "    Metadata:\n",
      "      encoder         : Lavc58.35.100 pcm_s16le\n",
      "Output #0, wav, to 'WORK_DIR/output_multiple_files/processed/TSAG_Rapporteur_Group_Morning_28_02_0_P3.wav':\n",
      "  Metadata:\n",
      "    ISFT            : Lavf58.20.100\n",
      "    Stream #0:0: Audio: pcm_s16le ([1][0][0][0] / 0x0001), 16000 Hz, mono, s16, 256 kb/s\n",
      "    Metadata:\n",
      "      encoder         : Lavc58.35.100 pcm_s16le\n",
      "Stream mapping: time=00:01:46.52 bitrate= 255.9kbits/s speed= 212x    \n",
      "  Stream #0:0 -> #0:0 (mp3 (mp3float) -> pcm_s16le (native))\n",
      "Press [q] to stop, [?] for help\n",
      "Input #0, mp3, from 'WORK_DIR/DATA/TSAG_Rapporteur_Group_on_the_review_of_WTSA_Resolutions_1_03_0.mp3':\n",
      "  Duration: 00:57:19.51, start: 0.069063, bitrate: 45 kb/s\n",
      "    Stream #0:0: Audio: mp3, 16000 Hz, mono, fltp, 45 kb/s\n",
      "    Metadata:\n",
      "      encoder         : LAME3.100\n",
      "Stream mapping:\n",
      "  Stream #0:0 -> #0:0 (mp3 (mp3float) -> pcm_s16le (native))\n",
      "Press [q] to stop, [?] for help\n",
      "Output #0, wav, to 'WORK_DIR/output_multiple_files/processed/TSAG_Rapporteur_Group_Morning_28_02_0_P1.wav':\n",
      "  Metadata:\n",
      "    ISFT            : Lavf58.20.100\n",
      "    Stream #0:0: Audio: pcm_s16le ([1][0][0][0] / 0x0001), 16000 Hz, mono, s16, 256 kb/s\n",
      "    Metadata:\n",
      "      encoder         : Lavc58.35.100 pcm_s16le\n",
      "Input #0, mp3, from 'WORK_DIR/DATA/TSAG_Rapporteur_Group_on_Strengthening_Cooperation_1_03_0_P3.mp3':\n",
      "  Duration: 00:26:54.24, start: 0.069063, bitrate: 49 kb/s\n",
      "    Stream #0:0: Audio: mp3, 16000 Hz, mono, fltp, 49 kb/s\n",
      "    Metadata:\n",
      "      encoder         : LAME3.100\n",
      "Stream mapping:\n",
      "  Stream #0:0 -> #0:0 (mp3 (mp3float) -> pcm_s16le (native))\n",
      "Press [q] to stop, [?] for help\n",
      "ffmpeg version 4.1.6-1~deb10u1 Copyright (c) 2000-2020 the FFmpeg developers\n",
      "  built with gcc 8 (Debian 8.3.0-6)\n",
      "  configuration: --prefix=/usr --extra-version='1~deb10u1' --toolchain=hardened --libdir=/usr/lib/x86_64-linux-gnu --incdir=/usr/include/x86_64-linux-gnu --arch=amd64 --enable-gpl --disable-stripping --enable-avresample --disable-filter=resample --enable-avisynth --enable-gnutls --enable-ladspa --enable-libaom --enable-libass --enable-libbluray --enable-libbs2b --enable-libcaca --enable-libcdio --enable-libcodec2 --enable-libflite --enable-libfontconfig --enable-libfreetype --enable-libfribidi --enable-libgme --enable-libgsm --enable-libjack --enable-libmp3lame --enable-libmysofa --enable-libopenjpeg --enable-libopenmpt --enable-libopus --enable-libpulse --enable-librsvg --enable-librubberband --enable-libshine --enable-libsnappy --enable-libsoxr --enable-libspeex --enable-libssh --enable-libtheora --enable-libtwolame --enable-libvidstab --enable-libvorbis --enable-libvpx --enable-libwavpack --enable-libwebp --enable-libx265 --enable-libxml2 --enable-libxvid --enable-libzmq --enable-libzvbi --enable-lv2 --enable-omx --enable-openal --enable-opengl --enable-sdl2 --enable-libdc1394 --enable-libdrm --enable-libiec61883 --enable-chromaprint --enable-frei0r --enable-libx264 --enable-shared\n",
      "  libavutil      56. 22.100 / 56. 22.100\n",
      "  libavcodec     58. 35.100 / 58. 35.100\n",
      "  libavformat    58. 20.100 / 58. 20.100\n",
      "  libavdevice    58.  5.100 / 58.  5.100\n",
      "  libavfilter     7. 40.101 /  7. 40.101\n",
      "  libavresample   4.  0.  0 /  4.  0.  0\n",
      "  libswscale      5.  3.100 /  5.  3.100\n",
      "  libswresample   3.  3.100 /  3.  3.100\n",
      "  libpostproc    55.  3.100 / 55.  3.100\n",
      "Input #0, mp3, from 'WORK_DIR/DATA/TSAG_Rapporteur_Group_on_Strengthening_Cooperation_1_03_0_P2.mp3':\n",
      "  Duration: 01:00:37.89, start: 0.025057, bitrate: 70 kb/s\n",
      "    Stream #0:0: Audio: mp3, 44100 Hz, mono, fltp, 70 kb/s\n",
      "    Metadata:\n",
      "      encoder         : LAME3.100\n"
     ]
    },
    {
     "name": "stdout",
     "output_type": "stream",
     "text": [
      "Stream mapping:\n",
      "  Stream #0:0 -> #0:0 (mp3 (mp3float) -> pcm_s16le (native))\n",
      "Press [q] to stop, [?] for help\n",
      "Output #0, wav, to 'WORK_DIR/output_multiple_files/processed/TSAG_Rapporteur_Group_on_Working_Methods_1_03_0_P1.wav':\n",
      "  Metadata:\n",
      "    ISFT            : Lavf58.20.100\n",
      "    Stream #0:0: Audio: pcm_s16le ([1][0][0][0] / 0x0001), 16000 Hz, mono, s16, 256 kb/s\n",
      "    Metadata:\n",
      "      encoder         : Lavc58.35.100 pcm_s16le\n",
      "Output #0, wav, to 'WORK_DIR/output_multiple_files/processed/TSAG_Rapporteur_Group_on_Strengthening_Cooperation_1_03_0_P1.wav':\n",
      "  Metadata:\n",
      "    ISFT            : Lavf58.20.100\n",
      "    Stream #0:0: Audio: pcm_s16le ([1][0][0][0] / 0x0001), 16000 Hz, mono, s16, 256 kb/s\n",
      "    Metadata:\n",
      "      encoder         : Lavc58.35.100 pcm_s16le\n",
      "Input #0, mp3, from 'WORK_DIR/DATA/TSAG_Rapporteur_Group_on_Working_Methods_1_03_0_P2.mp3':\n",
      "  Duration: 00:47:20.69, start: 0.069063, bitrate: 50 kb/s\n",
      "    Stream #0:0: Audio: mp3, 16000 Hz, mono, fltp, 50 kb/s\n",
      "    Metadata:\n",
      "      encoder         : LAME3.100\n",
      "Output #0, wav, to 'WORK_DIR/output_multiple_files/processed/TSAG_Rapporteur_Group_on_Strengthening_Cooperation_1_03_0_P2.wav':\n",
      "  Metadata:\n",
      "    ISFT            : Lavf58.20.100\n",
      "    Stream #0:0: Audio: pcm_s16le ([1][0][0][0] / 0x0001), 16000 Hz, mono, s16, 256 kb/s\n",
      "    Metadata:\n",
      "      encoder         : Lavc58.35.100 pcm_s16le\n",
      "Stream mapping:\n",
      "  Stream #0:0 -> #0:0 (mp3 (mp3float) -> pcm_s16le (native))\n",
      "Press [q] to stop, [?] for help\n",
      "Output #0, wav, to 'WORK_DIR/output_multiple_files/processed/TSAG_Rapporteur_Group_on_Strengthening_Cooperation_1_03_0_P3.wav':\n",
      "  Metadata:\n",
      "    ISFT            : Lavf58.20.100\n",
      "    Stream #0:0: Audio: pcm_s16le ([1][0][0][0] / 0x0001), 16000 Hz, mono, s16, 256 kb/s\n",
      "    Metadata:\n",
      "      encoder         : Lavc58.35.100 pcm_s16le\n",
      "Output #0, wav, to 'WORK_DIR/output_multiple_files/processed/TSAG_Rapporteur_Group_on_the_review_of_WTSA_Resolutions_1_03_0.wav':\n",
      "  Metadata:\n",
      "    ISFT            : Lavf58.20.100\n",
      "    Stream #0:0: Audio: pcm_s16le ([1][0][0][0] / 0x0001), 16000 Hz, mono, s16, 256 kb/s\n",
      "    Metadata:\n",
      "      encoder         : Lavc58.35.100 pcm_s16le\n",
      "Output #0, wav, to 'WORK_DIR/output_multiple_files/processed/TSAG_Rapporteur_Group_on_Working_Methods_1_03_0_P2.wav':\n",
      "  Metadata:\n",
      "    ISFT            : Lavf58.20.100\n",
      "    Stream #0:0: Audio: pcm_s16le ([1][0][0][0] / 0x0001), 16000 Hz, mono, s16, 256 kb/s\n",
      "    Metadata:\n",
      "      encoder         : Lavc58.35.100 pcm_s16le\n",
      "size=   50442kB time=00:26:54.15 bitrate= 256.0kbits/s speed= 290x    \n",
      "video:0kB audio:50442kB subtitle:0kB other streams:0kB global headers:0kB muxing overhead: 0.000151%\n",
      "size=   63359kB time=00:33:47.47 bitrate= 256.0kbits/s speed= 301x    \n",
      "video:0kB audio:63359kB subtitle:0kB other streams:0kB global headers:0kB muxing overhead: 0.000120%\n",
      "size=   64252kB time=00:34:16.06 bitrate= 256.0kbits/s speed= 293x    \n",
      "video:0kB audio:64252kB subtitle:0kB other streams:0kB global headers:0kB muxing overhead: 0.000119%\n",
      "size=   88769kB time=00:47:20.59 bitrate= 256.0kbits/s speed= 324x    \n",
      "video:0kB audio:88769kB subtitle:0kB other streams:0kB global headers:0kB muxing overhead: 0.000086%\n",
      "size=   88987kB time=00:47:27.58 bitrate= 256.0kbits/s speed= 316x    \n",
      "video:0kB audio:88987kB subtitle:0kB other streams:0kB global headers:0kB muxing overhead: 0.000086%\n",
      "size=  107482kB time=00:57:19.42 bitrate= 256.0kbits/s speed= 332x    \n",
      "video:0kB audio:107482kB subtitle:0kB other streams:0kB global headers:0kB muxing overhead: 0.000071%\n",
      "size=  140848kB time=01:15:07.14 bitrate= 256.0kbits/s speed= 319x    \n",
      "video:0kB audio:140848kB subtitle:0kB other streams:0kB global headers:0kB muxing overhead: 0.000054%\n",
      "size=   74852kB time=00:39:55.26 bitrate= 256.0kbits/s speed= 166x    \n",
      "video:0kB audio:74852kB subtitle:0kB other streams:0kB global headers:0kB muxing overhead: 0.000102%\n",
      "size=   82550kB time=00:44:01.59 bitrate= 256.0kbits/s speed= 175x    \n",
      "video:0kB audio:82550kB subtitle:0kB other streams:0kB global headers:0kB muxing overhead: 0.000092%\n",
      "size=  106203kB time=00:56:38.50 bitrate= 256.0kbits/s speed= 188x    \n",
      "video:0kB audio:106203kB subtitle:0kB other streams:0kB global headers:0kB muxing overhead: 0.000072%\n",
      "size=  107918kB time=00:57:33.38 bitrate= 256.0kbits/s speed= 185x    \n",
      "video:0kB audio:107918kB subtitle:0kB other streams:0kB global headers:0kB muxing overhead: 0.000071%\n",
      "size=  108922kB time=00:58:05.48 bitrate= 256.0kbits/s speed= 185x    \n",
      "video:0kB audio:108922kB subtitle:0kB other streams:0kB global headers:0kB muxing overhead: 0.000070%\n",
      "size=  104967kB time=00:55:58.93 bitrate= 256.0kbits/s speed= 179x    \n",
      "video:0kB audio:104967kB subtitle:0kB other streams:0kB global headers:0kB muxing overhead: 0.000073%\n",
      "size=  112717kB time=01:00:06.95 bitrate= 256.0kbits/s speed= 193x    \n",
      "video:0kB audio:112717kB subtitle:0kB other streams:0kB global headers:0kB muxing overhead: 0.000068%\n",
      "size=  107840kB time=00:57:30.87 bitrate= 256.0kbits/s speed= 182x    \n",
      "video:0kB audio:107840kB subtitle:0kB other streams:0kB global headers:0kB muxing overhead: 0.000071%\n",
      "size=  115953kB time=01:01:50.50 bitrate= 256.0kbits/s speed= 190x    \n",
      "video:0kB audio:115953kB subtitle:0kB other streams:0kB global headers:0kB muxing overhead: 0.000066%\n",
      "size=  113683kB time=01:00:37.86 bitrate= 256.0kbits/s speed= 191x    \n",
      "video:0kB audio:113683kB subtitle:0kB other streams:0kB global headers:0kB muxing overhead: 0.000067%\n",
      "size=  113538kB time=01:00:33.22 bitrate= 256.0kbits/s speed= 186x    \n",
      "video:0kB audio:113538kB subtitle:0kB other streams:0kB global headers:0kB muxing overhead: 0.000067%\n",
      "size=  115317kB time=01:01:30.14 bitrate= 256.0kbits/s speed= 186x    \n",
      "video:0kB audio:115317kB subtitle:0kB other streams:0kB global headers:0kB muxing overhead: 0.000066%\n",
      "size=  123110kB time=01:05:39.51 bitrate= 256.0kbits/s speed= 187x    \n",
      "video:0kB audio:123110kB subtitle:0kB other streams:0kB global headers:0kB muxing overhead: 0.000062%\n",
      "size=  123756kB time=01:06:00.17 bitrate= 256.0kbits/s speed= 185x    \n",
      "video:0kB audio:123756kB subtitle:0kB other streams:0kB global headers:0kB muxing overhead: 0.000062%\n",
      "size=  123711kB time=01:05:58.74 bitrate= 256.0kbits/s speed= 184x    \n",
      "video:0kB audio:123711kB subtitle:0kB other streams:0kB global headers:0kB muxing overhead: 0.000062%\n",
      "size=  136952kB time=01:13:02.45 bitrate= 256.0kbits/s speed= 194x    \n",
      "video:0kB audio:136952kB subtitle:0kB other streams:0kB global headers:0kB muxing overhead: 0.000056%\n",
      "Done.\n",
      "[NeMo W 2020-11-22 21:30:03 experimental:28] Module <class 'nemo.collections.asr.losses.ctc.CTCLoss'> is experimental, not ready for production and is not fully supported. Use at your own risk.\n",
      "[NeMo W 2020-11-22 21:30:04 experimental:28] Module <class 'nemo.collections.asr.data.audio_to_text.AudioToCharDataset'> is experimental, not ready for production and is not fully supported. Use at your own risk.\n",
      "[NeMo W 2020-11-22 21:30:04 experimental:28] Module <class 'nemo.collections.asr.data.audio_to_text.AudioToBPEDataset'> is experimental, not ready for production and is not fully supported. Use at your own risk.\n",
      "[NeMo W 2020-11-22 21:30:04 experimental:28] Module <class 'nemo.collections.asr.data.audio_to_text.AudioLabelDataset'> is experimental, not ready for production and is not fully supported. Use at your own risk.\n",
      "[NeMo W 2020-11-22 21:30:04 experimental:28] Module <class 'nemo.collections.asr.data.audio_to_text._TarredAudioToTextDataset'> is experimental, not ready for production and is not fully supported. Use at your own risk.\n",
      "[NeMo W 2020-11-22 21:30:04 experimental:28] Module <class 'nemo.collections.asr.data.audio_to_text.TarredAudioToCharDataset'> is experimental, not ready for production and is not fully supported. Use at your own risk.\n",
      "[NeMo W 2020-11-22 21:30:04 experimental:28] Module <class 'nemo.collections.asr.data.audio_to_text.TarredAudioToBPEDataset'> is experimental, not ready for production and is not fully supported. Use at your own risk.\n",
      "[NeMo W 2020-11-22 21:30:04 nemo_logging:349] /opt/conda/envs/nemo/lib/python3.7/site-packages/torch/cuda/__init__.py:52: UserWarning: CUDA initialization: Found no NVIDIA driver on your system. Please check that you have an NVIDIA GPU and installed a driver from http://www.nvidia.com/Download/index.aspx (Triggered internally at  /pytorch/c10/cuda/CUDAFunctions.cpp:100.)\n",
      "      return torch._C._cuda_getDeviceCount() > 0\n",
      "    \n"
     ]
    },
    {
     "name": "stdout",
     "output_type": "stream",
     "text": [
      "[NeMo W 2020-11-22 21:30:04 experimental:28] Module <class 'nemo.collections.asr.data.audio_to_text_dali.AudioToCharDALIDataset'> is experimental, not ready for production and is not fully supported. Use at your own risk.\n",
      "[NeMo W 2020-11-22 21:30:07 modelPT:122] Please call the ModelPT.setup_training_data() method and provide a valid configuration file to setup the train data loader.\n",
      "    Train config : \n",
      "    manifest_filepath: /home/wesam/dataset/TEDLIUM_release2/ted_train_nemo.json\n",
      "    sample_rate: 16000\n",
      "    labels:\n",
      "    - ' '\n",
      "    - a\n",
      "    - b\n",
      "    - c\n",
      "    - d\n",
      "    - e\n",
      "    - f\n",
      "    - g\n",
      "    - h\n",
      "    - i\n",
      "    - j\n",
      "    - k\n",
      "    - l\n",
      "    - m\n",
      "    - 'n'\n",
      "    - o\n",
      "    - p\n",
      "    - q\n",
      "    - r\n",
      "    - s\n",
      "    - t\n",
      "    - u\n",
      "    - v\n",
      "    - w\n",
      "    - x\n",
      "    - 'y'\n",
      "    - z\n",
      "    - ''''\n",
      "    batch_size: 16\n",
      "    trim_silence: true\n",
      "    max_duration: 16.7\n",
      "    shuffle: true\n",
      "    is_tarred: false\n",
      "    tarred_audio_filepaths: null\n",
      "    tarred_shard_strategy: scatter\n",
      "    \n",
      "[NeMo W 2020-11-22 21:30:07 modelPT:129] Please call the ModelPT.setup_validation_data() or ModelPT.setup_multiple_validation_data() method and provide a valid configuration file to setup the validation data loader(s). \n",
      "    Validation config : \n",
      "    manifest_filepath: /home/wesam/dataset/TEDLIUM_release2/ted_dev_nemo.json\n",
      "    sample_rate: 16000\n",
      "    labels:\n",
      "    - ' '\n",
      "    - a\n",
      "    - b\n",
      "    - c\n",
      "    - d\n",
      "    - e\n",
      "    - f\n",
      "    - g\n",
      "    - h\n",
      "    - i\n",
      "    - j\n",
      "    - k\n",
      "    - l\n",
      "    - m\n",
      "    - 'n'\n",
      "    - o\n",
      "    - p\n",
      "    - q\n",
      "    - r\n",
      "    - s\n",
      "    - t\n",
      "    - u\n",
      "    - v\n",
      "    - w\n",
      "    - x\n",
      "    - 'y'\n",
      "    - z\n",
      "    - ''''\n",
      "    batch_size: 16\n",
      "    shuffle: false\n",
      "    \n",
      "[NeMo W 2020-11-22 21:30:07 nemo_logging:349] /opt/conda/envs/nemo/lib/python3.7/site-packages/hydra/_internal/utils.py:632: UserWarning: \n",
      "    Config key 'cls' is deprecated since Hydra 1.0 and will be removed in Hydra 1.1.\n",
      "    Use '_target_' instead of 'cls'.\n",
      "    See https://hydra.cc/docs/next/upgrades/0.11_to_1.0/object_instantiation_changes\n",
      "      warnings.warn(message=msg, category=UserWarning)\n",
      "    \n",
      "[NeMo W 2020-11-22 21:30:07 nemo_logging:349] /opt/conda/envs/nemo/lib/python3.7/site-packages/hydra/_internal/utils.py:577: UserWarning: \n",
      "    Field 'params' is deprecated since Hydra 1.0 and will be removed in Hydra 1.1.\n",
      "    Inline the content of params directly at the containing node.\n",
      "    See https://hydra.cc/docs/next/upgrades/0.11_to_1.0/object_instantiation_changes\n",
      "      warnings.warn(category=UserWarning, message=msg)\n",
      "    \n",
      "[NeMo I 2020-11-22 21:30:07 features:241] PADDING: 16\n",
      "[NeMo I 2020-11-22 21:30:07 features:258] STFT using torch\n",
      "[NeMo I 2020-11-22 21:30:08 modelPT:308] Model EncDecCTCModel was successfully restored from ./nemo100_NR_ft.nemo.\n",
      "[NeMo W 2020-11-22 21:30:12 nemo_logging:349] /opt/conda/envs/nemo/lib/python3.7/site-packages/torch/functional.py:516: UserWarning: stft will require the return_complex parameter be explicitly  specified in a future PyTorch release. Use return_complex=False  to preserve the current behavior or return_complex=True to return  a complex output. (Triggered internally at  /pytorch/aten/src/ATen/native/SpectralOps.cpp:653.)\n",
      "      normalized, onesided, return_complex)\n",
      "    \n",
      "[NeMo W 2020-11-22 21:30:12 nemo_logging:349] /opt/conda/envs/nemo/lib/python3.7/site-packages/torch/functional.py:516: UserWarning: The function torch.rfft is deprecated and will be removed in a future PyTorch release. Use the new torch.fft module functions, instead, by importing torch.fft and calling torch.fft.fft or torch.fft.rfft. (Triggered internally at  /pytorch/aten/src/ATen/native/SpectralOps.cpp:590.)\n",
      "      normalized, onesided, return_complex)\n",
      "    \n"
     ]
    }
   ],
   "source": [
    "import os \n",
    "WORK_DIR = 'WORK_DIR'\n",
    "OUTPUT_DIR_2 = os.path.join(WORK_DIR, 'output_multiple_files')\n",
    "MODEL ='./nemo100_NR_ft.nemo' # './nemo100_ft.nemo' # 'QuartzNet15x5Base-En'\n",
    "TOOLS_DIR = './ctc_segmentation/scripts'\n",
    "DATA_DIR = WORK_DIR + '/DATA'\n",
    "THRESHOLD = -5\n",
    "\n",
    "\n",
    "! bash $TOOLS_DIR/../run_sample.sh \\\n",
    "--MODEL_NAME_OR_PATH=$MODEL \\\n",
    "--DATA_DIR=$DATA_DIR \\\n",
    "--OUTPUT_DIR=$OUTPUT_DIR_2 \\\n",
    "--SCRIPTS_DIR=$TOOLS_DIR \\\n",
    "--CUT_PREFIX=4 \\\n",
    "--MIN_SCORE=$THRESHOLD"
   ]
  },
  {
   "cell_type": "code",
   "execution_count": null,
   "metadata": {},
   "outputs": [],
   "source": []
  }
 ],
 "metadata": {
  "kernelspec": {
   "display_name": "Python 3",
   "language": "python",
   "name": "python3"
  },
  "language_info": {
   "codemirror_mode": {
    "name": "ipython",
    "version": 3
   },
   "file_extension": ".py",
   "mimetype": "text/x-python",
   "name": "python",
   "nbconvert_exporter": "python",
   "pygments_lexer": "ipython3",
   "version": "3.7.9"
  }
 },
 "nbformat": 4,
 "nbformat_minor": 4
}
